<?xml version="1.0" encoding="utf-8"?>
<!-- Generator: Adobe Illustrator 21.0.0, SVG Export Plug-In . SVG Version: 6.00 Build 0)  -->
<svg version="1.1" xmlns="http://www.w3.org/2000/svg" xmlns:xlink="http://www.w3.org/1999/xlink" x="0px" y="0px"
	 viewBox="0 0 841.9 1190.6" style="enable-background:new 0 0 841.9 1190.6;" xml:space="preserve">
<style type="text/css">
	.st0{fill:#DADADA;}
	.st1{opacity:0.5;}
	.st2{fill:#B2B2B2;}
	.st3{opacity:0.44;fill:url(#SVGID_1_);}
	.st4{opacity:0.4;fill:#A1998E;stroke:#7B6A58;stroke-miterlimit:10;}
	.st5{fill:url(#SVGID_2_);}
	.st6{opacity:0.5;fill:#D89863;}
	.st7{opacity:0.5;fill:#FEDE80;}
	.st8{fill:#F7DCB6;stroke:#C39A6B;stroke-miterlimit:10;}
	.st9{fill:#EDDFCD;stroke:#D6B998;stroke-miterlimit:10;}
	.st10{fill:#C39A6B;}
	.st11{fill:#020203;}
	.st12{opacity:0.3;fill:#C39A6B;}
	.st13{fill:#D6B998;}
	.st14{opacity:0.4;}
	.st15{fill:#FFFFFF;}
	.st16{opacity:0.7;fill:#FFFFFF;}
	.st17{opacity:0.5;fill:#FFE361;}
	.st18{opacity:0.6;fill:#FFFFFF;}
	.st19{fill:#C43234;stroke:#542516;stroke-width:8;stroke-miterlimit:10;}
	.st20{fill:#542515;}
	.st21{fill:none;}
	.st22{stroke:#C9A038;stroke-width:0.6247;stroke-miterlimit:10;}
	.st23{fill:#FFFFFF;stroke:#FFFFFF;stroke-width:0.2833;stroke-miterlimit:10;}
	.st24{fill:#C9A038;}
	.st25{opacity:0.46;fill:#FFFFFF;}
	.st26{fill:#010202;stroke:#C9A038;stroke-width:2;stroke-miterlimit:10;}
	.st27{fill:#010202;}
	.st28{display:none;opacity:0.4;}
	.st29{display:inline;fill:#010202;}
	.st30{opacity:0.7;}
</style>
<g id="Calque_1">
	<rect class="st0" width="841.9" height="1190.6"/>
	<g class="st1">
		<polygon class="st2" points="453.5,-2.1 453.4,0 445.1,152.1 444,173.5 443.6,180.1 442.6,197.7 442.6,198.1 442.5,200.8 
			442.5,200.8 440.3,241.2 440.3,241.2 439.3,258.8 439.3,258.8 438.5,274.3 438.3,276.5 421,595.3 405,303.4 404.8,300 
			404.2,288.5 403,266.4 399.3,198.6 399.3,198.6 398.9,191.6 398.7,187.7 398.3,180 388.5,0 388.4,-2.1 		"/>
		<polygon class="st2" points="582.4,-2.1 581.8,0 569.7,44.7 565.7,59.7 558.7,85.3 553.2,105.8 551.3,112.9 541.2,150.4 
			536.8,166.3 530.3,190.5 530.3,190.5 528.5,197.2 528.4,197.5 511.6,259.9 505.6,281.9 421,595.3 474.3,253.8 475.5,246.1 
			478.2,228.7 483.1,197.5 483.1,197.5 483.2,196.5 485.8,180.2 486.5,175.4 486.5,175.4 489.9,153.8 513.9,0 514.3,-2.1 		"/>
		<polygon class="st2" points="726.9,-2.1 725.8,0 674.8,99.6 661.2,126.3 656.3,135.8 648,152.1 647.6,152.8 647.6,152.8 
			647.3,153.4 638.1,171.4 604.8,236.3 587.2,270.6 587.2,270.6 576.6,291.3 574.8,294.8 574.8,294.8 571,302.3 537.7,367.3 
			421,595.3 537.2,290.6 537.2,290.5 554.6,244.9 554.6,244.9 572.9,196.8 574,193.9 574.1,193.9 574.7,192.3 622,68.1 624.9,60.5 
			627.3,54.2 648,0 648.8,-2.1 		"/>
		<path class="st2" d="M841.9-2.1v79.8L665.1,295.1l-87,107l-60.5,74.4l-0.5,0.5l-10.3,12.6l-3.8,4.6l-82.1,101l98.1-151.8
			c0,0,0,0,0,0l5.3-8.3l82.3-127.4l5.5-8.5l6.6-10.2l65.5-101.4h0l10.2-15.8l0.8-1.2l6.1-9.4L805.7,0l1.4-2.1H841.9z"/>
		<polygon class="st2" points="841.9,172.5 841.9,255.9 747.1,332.3 643.2,416.1 585.8,462.3 583.2,464.5 496.3,534.5 495.1,535.5 
			421,595.3 498.3,517.6 500.8,515.1 544.4,471.3 545.2,470.5 625.5,389.8 706.2,308.8 		"/>
		<polygon class="st2" points="841.9,320.6 841.9,381.9 792.1,407.1 773.7,416.5 752.5,427.3 729,439.2 722.4,442.5 705.3,451.1 
			704.1,451.8 490.6,560 490.6,560 421,595.3 492.8,548.4 493.2,548.1 632.4,457.3 636.3,454.8 707.5,408.3 780.2,360.9 		"/>
		<polygon class="st2" points="841.9,432.7 841.9,483.4 750.8,507.6 747.2,508.6 702.9,520.4 690.4,523.7 634.5,538.5 630.8,539.5 
			625.3,541 624.3,541.3 615.3,543.6 580.4,552.9 572,555.1 561.3,558 486.9,577.8 486.8,577.8 421,595.3 488.7,569.1 488.7,569.1 
			572.9,536.6 576.3,535.3 588,530.7 589.8,530 598.3,526.8 601.6,525.5 607.4,523.3 613.5,520.9 766.7,461.7 767.8,461.3 
			768.8,460.9 768.8,460.9 		"/>
		<polygon class="st2" points="841.9,527.7 841.9,574.1 714.4,580.5 712.8,580.6 673.9,582.5 653.9,583.6 635.9,584.5 626.7,584.9 
			620.8,585.2 620,585.3 619.7,585.3 546.3,589 483.9,592.1 483.1,592.1 421,595.3 485,585 485.4,584.9 561.3,572.8 561.8,572.7 
			568.2,571.6 643.4,559.6 671.5,555 690.3,552 729.8,545.7 732.8,545.2 		"/>
		<polygon class="st2" points="841.9,616.5 841.9,662.9 683.1,637.4 682.8,637.3 637.4,630 625.1,628 480.5,604.8 479.4,604.7 
			421,595.3 481.4,598.3 482.3,598.4 617.9,605.2 633.5,606 639.5,606.3 657,607.1 698.2,609.2 698.7,609.3 		"/>
		<polygon class="st2" points="841.9,707.1 841.9,757.9 655.1,685.7 654.5,685.5 597.5,663.5 597.5,663.5 476.1,616.6 475.4,616.3 
			475,616.2 443.6,604 421,595.3 477.5,610.3 478.5,610.6 612.2,646.1 618.5,647.8 669,661.2 669.6,661.3 		"/>
		<polygon class="st2" points="841.9,808.6 841.9,869.9 627.4,730 627.1,729.8 471.5,628.3 471.1,628 471,627.9 434.7,604.3 
			421,595.3 438.1,604 473.3,621.8 473.7,622 473.8,622 641.5,707.1 641.8,707.2 		"/>
		<polygon class="st2" points="841.9,934.7 841.9,1018 641.2,816.5 597.9,773 597.1,772.2 552.8,727.7 552.7,727.6 547.9,722.8 
			520,694.7 517,691.7 510.2,684.9 509.4,684.1 466.1,640.7 465.6,640.1 430.6,605 421,595.3 432.5,604.6 468.6,633.7 468.6,633.7 
			468.9,633.9 473.2,637.4 480.1,643 526,680 541,692.1 546.6,696.6 589.6,731.2 613,750.2 613.9,750.8 617,753.4 		"/>
		<polygon class="st2" points="841.9,1112.9 841.9,1191.4 806.3,1191.4 805.7,1190.6 727,1068.7 711.4,1044.6 709.9,1042.2 
			700.6,1028 697.7,1023.4 690.3,1011.9 645.8,943.2 608.3,885.1 562.5,814.2 562.4,814.1 547.6,791.2 544.9,787 517.5,744.6 
			505.1,725.4 500.9,719 491.2,704 488.5,699.7 461.5,657.9 459.5,655 459.4,654.8 459.1,654.4 459,654.1 451.8,643 444.4,631.5 
			427.8,605.8 421,595.3 429.2,605.4 462.4,646.3 462.7,646.6 462.9,646.9 463,646.9 463,647 497.8,689.8 500.2,692.8 506.6,700.6 
			513.5,709 542.7,745 581.4,792.5 581.8,793 640.8,865.6 		"/>
		<path class="st2" d="M648.3,1191.4l-0.3-0.8l-23.9-62.7l-3-8l-2.8-7.2l-2.7-7l-2.8-7.5l-0.4-1l-1.6-4.1l-1.5-3.8l-2.3-6.2
			l-1.5-3.9l0,0l-1.8-4.8l-3.6-9.4l-0.5-1.4l-4.6-12l-29.4-77.1L520,854.9l-0.3-0.8l-0.3-0.9l0,0l-35.4-92.8l-5.2-13.5l-6.4-16.9
			l-6.5-17.1l-8.4-21.9c0,0,0,0,0,0l-6.2-16.3l-0.3-0.8l-0.4-1.2l-0.5-1.4v0l-4-10.5l-11.1-29.1l-0.7-1.9l0-0.1l-8.8-23l-4.4-11.5
			l5.6,11l11.7,22.8l11.8,23.1l4.9,9.6l0,0.1l0.4,0.8l0.3,0.6l1.9,3.6l27.9,54.5c0,0,0,0,0,0l1.7,3.2l8.6,16.8l5.3,10.3l1.7,3.2
			l39.8,77.7l0.1,0.1l0.3,0.6l0.9,1.7l67.9,132.6l6.3,12.4l16.4,31.9l3.3,6.4l3.9,7.5l3.5,6.8l0.4,0.8l2.8,5.5l4.8,9.4l2.8,5.4
			l5,9.8l2.3,4.5l6,11.7l1.5,2.9l6.9,13.6l1,1.9l6.7,13.1l0.7,1.4l14,27.4l0.2,0.4l4.4,8.6l21.2,41.4l0.4,0.8H648.3z"/>
		<path class="st2" d="M582,1191.4h-68l-0.1-0.8l-12.4-79.2l-1.3-8.2L483,992.6l-8.9-56.9l-0.3-1.7l-2.3-14.9l-2.1-13.7l-2-13
			l-0.1-0.6v0l-0.1-0.7L453.1,801l-0.3-2.2l-8-50.9l-6.2-39.6l-0.7-4.5v-0.1l-0.5-3l-0.6-3.6l-0.4-2.4l-0.1-0.5l-2.1-13.3l-1.6-10.5
			l-4.7-30.3l-1-6.1l0-0.2l-4-25.6l-2-12.9l3.3,12.1l6.4,23.8l0,0.2l1.4,5.1l8.2,30.5l3.5,12.9l0.4,1.6l0,0.1c0,0,0,0,0,0l0.3,1.1
			l0.2,0.9l0.6,2.1l4.7,17.6l10.8,39.9l4.2,15.4l5.6,20.8l25,92.3l0.1,0.4l0.2,0.7l0.1,0.4l23.7,87.8l5.9,21.8l29,107.4l2.9,10.8v0
			l5.5,20.5l0,0.1l18.7,69.2L582,1191.4z"/>
		<path class="st2" d="M453.5,1191.4h-65l0-0.8l3-54.2l6.6-121.2l0.3-5.7l4.4-80.4l0-0.5l0-0.9l0-0.5l4.3-79.4l2.3-42.4l0.9-16.3
			l1.6-28.6l0.3-5.1v-0.1l0.7-13.4l0.5-8.7l0.1-1.1l0.1-1.7l0.2-3.7l2.6-47l0.4-7.9l0.4-8l2.9-53.5l0.8-15l0.8,13.7l1.6,29.4v0
			l0.1,2.6l1.5,26.5l0.5,9l1.7,31.6l0.1,1.5l0.1,2.3v0.2c0,0,0,0,0,0l0.3,6l0,0.4l0.8,13.7l0.5,10.1l0.9,16.1l2.1,38.7l0.8,13.8
			l0.6,11.8l4.7,86.4v0l0,0.6l0,0.6l0,0.6l0.3,4.7l4.8,87.2l2.9,53.9l3.3,60.9l4,72.9L453.5,1191.4z"/>
		<polygon class="st2" points="421,595.3 418.5,611 412.4,650.2 408.9,672.5 407.6,680.8 400.2,728 397.2,747.5 396.2,753.9 
			396.1,754.5 393.9,768.2 386.4,816.6 377.7,871.9 377.7,871.9 377.3,874.4 366.9,941.4 366.6,943 366.6,943.3 366.4,944.7 
			365.3,951.8 353.3,1028 333.9,1152.3 328,1190.6 327.8,1191.4 259.9,1191.4 260.1,1190.6 266.7,1166.2 299.6,1044.2 324.5,952 
			324.7,951.4 335.1,912.9 339.1,898.2 339.3,897.4 341.6,888.8 360.5,819.2 365.1,801.9 365.9,798.9 369.4,786.1 370.6,781.5 
			372.3,775.4 372.3,775.3 382.3,738.4 386,724.7 393.7,696.1 399.4,674.9 410.2,635.1 416.3,612.7 		"/>
		<polygon class="st2" points="421,595.3 388.3,680.7 374.6,716.7 371.1,725.9 357.9,760.6 339.9,807.8 339.2,809.6 337,815.3 
			336.7,816 334.2,822.7 315.7,871.3 315.5,871.6 302.8,905 297.7,918.3 283.5,955.6 282,959.5 260.9,1014.9 257,1025.1 
			256.3,1026.8 253.3,1034.8 245.6,1055 245.3,1055.7 233.5,1086.6 231.1,1092.9 223.2,1113.7 201.2,1171.4 193.9,1190.6 
			193.6,1191.4 115.6,1191.4 116.1,1190.6 150.9,1122.5 154,1116.4 155.9,1112.8 159.7,1105.4 161.5,1101.8 165.3,1094.3 
			167.1,1090.9 171.4,1082.5 173.1,1079.2 177,1071.6 178.5,1068.7 181.7,1062.4 183.3,1059.2 188.1,1049.8 189.9,1046.4 
			193,1040.4 194.8,1036.7 198.3,1030 200.5,1025.8 203.3,1020.2 205.8,1015.4 210.3,1006.5 230.3,967.4 235,958.3 245.3,938.3 
			253.2,922.7 294.6,841.9 295.7,839.7 307.7,816.3 336.8,759.5 		"/>
		<polygon class="st2" points="421,595.3 249.2,861 245.5,866.8 199.6,937.7 192.4,948.8 191.1,950.9 176,974.3 163.4,993.7 
			158.9,1000.6 158,1002 154.9,1006.8 154.9,1006.9 131.2,1043.5 111,1074.7 95.5,1098.8 36.2,1190.6 35.6,1191.4 0,1191.4 
			0,1112.9 103.4,985.8 108.8,979 111.7,975.5 129.2,954.1 133.5,948.7 193.9,874.4 		"/>
		<polygon class="st2" points="421,595.3 128.5,889 45.7,972.2 0,1018 0,934.7 		"/>
		<polygon class="st2" points="421,595.3 0,869.9 0,808.6 		"/>
		<polygon class="st2" points="421,595.3 0,757.9 0,707.1 		"/>
		<polygon class="st2" points="421,595.3 0,662.9 0,616.5 		"/>
		<polygon class="st2" points="421,595.3 0,574.1 0,527.7 		"/>
		<polygon class="st2" points="421,595.3 0,483.4 0,432.7 		"/>
		<polygon class="st2" points="421,595.3 0,381.9 0,320.6 		"/>
		<polygon class="st2" points="421,595.3 0,255.9 0,172.5 		"/>
		<polygon class="st2" points="421,595.3 133.2,241.5 130.5,238.2 126,232.6 122.7,228.5 0,77.7 0,-2.1 34.8,-2.1 36.2,0 170.6,208 
			177.3,218.4 252,333.9 274.6,368.8 		"/>
		<polygon class="st2" points="421,595.3 304.8,368.5 289,337.8 289,337.8 248.7,259 224.8,212.4 224.8,212.4 116.1,0 115,-2.1 
			193.1,-2.1 193.9,0 262.4,179.5 262.4,179.5 269.6,198.4 282.4,232.1 300.2,278.8 300.2,278.8 322.6,337.5 322.6,337.5 
			329.2,354.7 		"/>
		<polygon class="st2" points="421,595.3 349.3,329.9 337.3,285.6 327.3,248.6 323.8,235.6 323.8,235.6 314,199.3 313.8,198.7 
			311.7,190.9 308.7,179.9 260.1,0 259.5,-2.1 327.6,-2.1 328,0 356.1,180 359,199 361.5,215.1 362.5,221.1 363.7,228.5 
			368.4,258.9 368.4,258.9 		"/>
		<polygon class="st2" points="453.5,-2.1 453.4,0 445.1,152.1 444,173.5 443.6,180.1 442.6,197.7 442.6,198.1 442.5,200.8 
			442.5,200.8 440.3,241.2 440.3,241.2 439.3,258.8 439.3,258.8 438.5,274.3 438.3,276.5 421,595.3 405,303.4 404.8,300 
			404.2,288.5 403,266.4 399.3,198.6 399.3,198.6 398.9,191.6 398.7,187.7 398.3,180 388.5,0 388.4,-2.1 		"/>
	</g>
	<radialGradient id="SVGID_1_" cx="420.945" cy="594.625" r="516.3871" gradientUnits="userSpaceOnUse">
		<stop  offset="0" style="stop-color:#FFFFFF"/>
		<stop  offset="0.1637" style="stop-color:#E0E0DF"/>
		<stop  offset="0.7464" style="stop-color:#616060"/>
		<stop  offset="1" style="stop-color:#000000"/>
	</radialGradient>
	<rect y="-2.1" class="st3" width="841.9" height="1193.5"/>
	<path class="st4" d="M548.5,297.2c0,0,147.5-47.9,252.8,88.1C778.2,441,753.5,496,727.5,550.5c-39.3,82.3-83.3,160.4-138.7,232.6
		C531.5,858,448.7,910.5,361.8,944.9c0,0-330.3,67.5-327.5,12.9c0,0-20.1-51.7,158.9-83.3c37.5-6.6,81.1-18.7,113.2-39.7
		c21.8-14.3,41.3-34.3,59.3-52.8c40.6-41.4,75.8-88.7,99.7-141.7c15.6-34.6,15.4-33.2,22.9-69.9c3.8-18.7,16.4-74.1,21.5-92.6
		c12.5-46.4,25.1-93,33.8-140.2C544.3,334.6,547.9,297.4,548.5,297.2z"/>
	<linearGradient id="SVGID_2_" gradientUnits="userSpaceOnUse" x1="173.8122" y1="704.7111" x2="768.4641" y2="704.7111">
		<stop  offset="0" style="stop-color:#E8CF63"/>
		<stop  offset="0.4206" style="stop-color:#F1CE5D"/>
		<stop  offset="0.9988" style="stop-color:#B6852C"/>
	</linearGradient>
	<path class="st5" d="M271.3,852.6c-43.5,23.1-113.2,62.9-94.3,84.2c25.2,28.4,73.9,21.8,108.9,18.6c34.6-3.2,71-5.8,103.1-20.2
		c15.4-6.9,30.4-15.3,45-23.7c44.8-25.8,87.2-56.6,124.1-92.9c26.2-25.9,47.9-54.4,67.4-85.5c0,0,116.8-185.6,142.9-270.3
		c0,0-54-34.9-258.6,16.2c-5.4,1.3-10.9,35.4-11.7,39.7c-5.8,31.5-10.3,62.5-21,92.8c-32.4,92-92.1,172.2-174.9,224.7
		C298.4,838.6,286.4,844.6,271.3,852.6z"/>
	<path class="st6" d="M302.3,834.3c0,0,29.3,94.6,60.5,111.6c0,0,88.5-27.7,195.5-123.1c0,0-13.6-25.3-10.2-34
		c0,0-110.4-59.3-34.5-106c0,0,24.8,3.8,66.2,36.4c0,0-60.6-75.4-111.5-82.6C468.2,636.5,388.7,804.9,302.3,834.3z"/>
	<path class="st7" d="M302.3,835.1c0,0,16.3,48.8,27.6,68.4c0,0,139.4-72.3,197.2-226.3c0,0-26.1-35-61.5-36.8
		C465.5,640.4,399.8,814.8,302.3,835.1z"/>
	<path class="st8" d="M799,1191.4H556.7c-0.2-0.3-0.4-0.6-0.6-0.8c-1.1-1.5-2.1-3.1-3.2-4.6c-3.8-5.3-7.7-10.6-11.6-15.9
		c-5.4-7.4-11.1-14.5-16.9-21.5c-7.4-8.9-9-19.1-15.5-28.2c-2.2-3.1-4.7-6.1-7.3-9c-2.1-2.4-4.3-4.6-6.6-6.8c-0.3-0.4-0.7-0.7-1.1-1
		c-8-7.6-18.4-12.1-26-20.7c-7.4-8.3-12.8-18.5-21.4-25.8c-0.1-0.1-0.3-0.2-0.4-0.3c-8.3-7.1-17-13.5-24.8-21.2
		c-6.9-6.8-13.4-14-19.4-21.5c-1.2-1.5-2.4-3-3.6-4.6c-4.3-5.6-8.3-11.3-12.1-17.3c-1.2-1.8-14.5-26.7-21-40.4
		c-1.1-2.4-2.1-4.5-2.7-6c-0.1-0.4-0.3-0.7-0.4-1c0-0.1-0.1-0.2-0.1-0.3c-0.3-1-0.5-1.5-0.3-1.6c1.7-0.5,3.4-1,5.1-1.5
		c7.6-2.4,15.1-5.1,22.5-8c0,0,0,0,0,0c4.5-1.8,9-3.7,13.5-5.7c5.5-2.5,10.9-5,16.2-7.7c0,0,0.1,0,0.1-0.1c6.5-3.3,12.8-6.6,19-10.1
		c2-1.1,4-2.3,6-3.5c0,0,0,0,0.1,0c3.4-2,6.8-4,10-6c0,0,0,0,0,0c4.3-2.6,8.4-5.3,12.5-8c0,0,0,0,0.1,0c0.2-0.1,0.3-0.2,0.5-0.3
		c10.2-6.7,19.7-13.5,28.4-20c8.7-6.5,16.6-12.8,23.7-18.6c1.4-1.1,2.7-2.3,4-3.3c0.4-0.4,0.8-0.7,1.3-1.1
		c7.3-6.1,13.3-11.6,18.1-15.9c7.5-6.9,11.6-11.1,11.6-11.1l-1.3-10.3l-0.1-0.8c-0.1,0-0.2-0.1-0.3-0.1h0
		c-7.9-4.1-8.3-22.4-8.3-22.4c-17.4-3.3-32.6-20.8-41.4-33.1c-2-2.8-3.6-5.3-4.9-7.3c0,0,0,0,0,0c0,0,0,0,0-0.1
		c-1.5-2.4-2.5-4.1-2.8-4.7v0c-0.1-0.2-0.1-0.3-0.1-0.3c-2.4-3.8-4.3-7.4-5.8-10.7c-1.7-3.8-2.8-7.3-3.5-10.5c0,0,0,0,0,0
		c-2-9.3-0.4-16.4,2.8-21.8c2.5-4.3,6-7.5,9.4-9.9c4.9-3.4,9.8-5.1,11.6-5.7c0.5-0.2,0.8-0.2,0.8-0.2c0.7-0.2,1.4-0.4,2.2-0.5
		c1.3-0.1,2.7-0.1,4.3,0h0c2.2,0.2,4.7,0.8,7.3,1.5h0c5.3,1.6,11.2,4.1,17,7c13.2,6.5,26.1,15,31.6,18.7c0,0,0,0,0,0
		c1.7,1.2,2.7,1.9,2.7,1.9c42.1,11.5,40.2,27.3,40.2,27.3c0.2,2,0.4,3.9,0.6,5.8c0.1,0.5,0.1,1,0.2,1.5c0.2,2.1,0.5,4.1,0.8,6.1
		c3.6,26.1,10,44.5,10,44.5c7.4,6.4,11.8,12.9,14.2,18.6c4.4,10.1,3,17.7,3,17.7c-1.9,10.8-3.2,21.1-3.4,31.4
		c-0.2,11,0.8,22,3.4,33.7c2.6,11.6,2.4,29.8,1.6,43.9c-0.6,11.5-1.6,20.3-1.6,20.3c6.3,5.8,14.4,26.4,19.8,41.9v0
		c1,3,2,5.8,2.8,8.3c0.7,2.1,1.3,4,1.8,5.6c0.9,2.9,1.4,4.6,1.4,4.6c0.8,1.2,1.9,2.8,3.1,4.6c1.2,1.6,2.5,3.5,4,5.6v0
		c2.5,3.4,5.4,7.4,8.7,11.8c1.1,1.4,2.2,3,3.4,4.5c6.9,9.1,15.1,19.8,24.1,31.6c25.5,33.1,57.7,74.2,84.9,108.8
		C798.5,1190.8,798.8,1191.1,799,1191.4z"/>
	<path class="st8" d="M476.3,612.7c0,0-38.7-18.1-56.3-2.3c0,0-15.1,3.6-7.9,38.8c0,0,5,17.6,10.4,24.1c-2.8-3.4-16.7-0.2-19.9,0.7
		c-21.1,5.7-38.8,28.4-24.3,49.9c0,0-29.1,3.9-28,35.2c0,0-20.5-8.6-36.6,26.2c0,0-7.5,29.1-7.2,49.6c0,0,32.3-18,32.3-21.2
		c0,0,20.8,10.4,46.7,3.6c0,0,12.9-8.6,13.6-20.5c0,0,21,24.4,45.9,9.7c0,0,28.4-20.8,6.2-44.2c0,0,27.4-2.9,30.5-23.7
		c0,0,15.8-25.9-40.2-57.8c0,0,21.5-7.2,21.2-33.8c-2.7,0.8,10.9-17.5,11.6-28.7L476.3,612.7z"/>
	<path class="st9" d="M553.2,714.2l-31.6-23.3c0,0-24.4-0.7-20.8,47.4l34.8,13.3C535.6,751.5,557.5,736.1,553.2,714.2z"/>
	<path class="st9" d="M420,648.5c0,0,1.8-19.4,19.7-19.4c0,0,15.4,5.4,11.5,19.4c0,0-5,24.8-25.1,21.9
		C426.1,670.4,418.8,653.6,420,648.5z"/>
	<path class="st9" d="M445,702c0,0-24.3,1.8-20,26.6c0,0,15.4,17.2,22.6,21.2c0,0,26.9-9,26.6-28.5C474.2,721.2,458.2,702.8,445,702
		z"/>
	<path class="st9" d="M400.2,776.3c0,0-5-23.7,24.3-22.3c0,0,25.6,20.5,23.5,22.3c0,0-0.2,14-24,25.1
		C424,801.4,404.2,784.9,400.2,776.3z"/>
	<path class="st9" d="M350.7,788.1c0,0,1.4-20.1,16.5-15.4l20.1,10.1l2.5,5.4c0,0-9,1.7-16.5,16.5
		C373.3,804.6,360.7,803.6,350.7,788.1z"/>
	<g>
		<path class="st10" d="M550,842c1.1,3.5,2.9,6.7,4.9,9.8c2,3.1,4.3,5.9,6.8,8.6c5,5.3,10.9,9.8,17.2,13.3
			c6.3,3.6,13.2,6.3,20.1,8.5c7,2.2,14.1,3.8,21.3,5l0,0.1c-7.3-0.7-14.6-2.1-21.6-4.1c-7-2.1-13.9-5-20.2-8.7
			c-6.4-3.7-12.2-8.3-17.2-13.7c-2.5-2.7-4.7-5.6-6.7-8.8C552.7,848.8,551,845.5,550,842L550,842z"/>
	</g>
	<g>
		<path class="st10" d="M504,907.7c-1.4,3.5-2,7.3-2.3,11.1c-0.2,3.8,0,7.6,0.7,11.3c1.4,7.4,4.6,14.5,9,20.6
			c2.2,3.1,4.7,5.9,7.4,8.6c2.6,2.7,5.6,5.1,8.5,7.5c5.9,4.7,12.4,8.7,19,12.4l0,0.1c-6.9-3.2-13.5-7.1-19.6-11.7
			c-3-2.4-5.9-4.8-8.6-7.6c-2.7-2.7-5.1-5.7-7.3-8.8c-4.4-6.2-7.5-13.4-8.9-20.9c-0.7-3.8-0.8-7.6-0.5-11.4
			C501.8,915,502.5,911.2,504,907.7L504,907.7z"/>
	</g>
	<g>
		<path class="st11" d="M569.8,1104.8c4.2,4.3,8.1,8.8,11.9,13.4c3.8,4.6,7.4,9.4,10.9,14.2c3.5,4.9,6.8,9.9,9.7,15.1
			c2.9,5.2,5.5,10.6,7.7,16.2l-0.1,0c-2.7-5.3-5.4-10.6-8.5-15.7c-3.1-5.1-6.1-10.2-9.5-15.1c-3.4-4.9-6.9-9.7-10.6-14.4
			C577.6,1113.8,573.7,1109.2,569.8,1104.8L569.8,1104.8z"/>
	</g>
	<g>
		<path class="st10" d="M692,1191.4c-4.7-10.5-10.2-20.7-16.1-30.6c-5.8-9.9-12-19.7-18.3-29.3c-3.2-4.8-6.4-9.6-9.7-14.3
			c-3.2-4.8-6.5-9.5-9.8-14.2c-6.6-9.5-13.2-18.9-20-28.2l0.1-0.1c7.2,9,14,18.3,20.7,27.7c6.7,9.4,13.1,19,19.4,28.7
			c6.3,9.7,12.4,19.5,18.1,29.5C682.1,1170.6,687.6,1180.8,692,1191.4L692,1191.4z"/>
	</g>
	<path class="st12" d="M435.4,913.2c0,0,31.9,26.4,39.8,22.1c0,0-10.8-10.1-13.6-16.5c0,0,22.1-0.8,22.2,5.7
		c0,0-16.1-25.6-24.2-25.7C451.6,898.7,435.4,913.2,435.4,913.2z"/>
	<g>
		<path class="st13" d="M608.3,1035.2c-0.5-5.1-0.7-10.2-0.8-15.3c0-5.1,0.1-10.3,0.6-15.4c0.5-5.1,1.2-10.2,3-15.1
			c0.9-2.4,2.1-4.8,3.8-6.8c0.9-1,1.9-1.8,3-2.5c1.2-0.6,2.5-1,3.7-1l0,0.1c-2.5,0.3-4.8,1.8-6.3,3.8c-1.5,2-2.6,4.3-3.4,6.7
			c-1.6,4.8-2.6,9.8-3.2,14.9c-0.6,5.1-0.8,10.2-0.9,15.3C608,1024.9,608.1,1030.1,608.3,1035.2L608.3,1035.2z"/>
	</g>
	<g class="st14">
		<path class="st13" d="M592,725.9c-1.1,2.2-2,4.4-2.7,6.8c-0.7,2.3-1.3,4.7-1.6,7.1c-0.3,2.4-0.3,4.8-0.2,7.2
			c0.1,2.4,0.6,4.7,1.3,7.1l-0.1,0c-1.1-2.2-1.8-4.6-2-7.1c-0.2-2.5,0-4.9,0.4-7.3c0.4-2.4,1.1-4.8,1.9-7.1
			C589.8,730.2,590.7,727.9,592,725.9L592,725.9z"/>
	</g>
	<path class="st15" d="M544.6,742.8c0,0-8-20,9.1-21.6C553.7,721.2,553.6,734.1,544.6,742.8z"/>
	<path class="st15" d="M422.1,640.8c0,0,8.4,3,13.7-11.4C435.8,629.4,426.4,630.9,422.1,640.8z"/>
	<path class="st15" d="M438.5,703.5c0,0,3.6,12.1-13.8,15.9C424.7,719.3,424.3,710,438.5,703.5z"/>
	<path class="st15" d="M412.7,755.1c0,0,1.4,11.5-12,11.5C400.7,766.6,403.3,756.3,412.7,755.1z"/>
	<path class="st15" d="M353.1,779.1c0,0,14.7-0.2,12.1-6.9C365.1,772.2,355.5,770.1,353.1,779.1z"/>
	<g class="st14">
		<path class="st10" d="M391.9,701.9c0.6-3.1,1.6-6.1,2.9-8.9c1.3-2.8,3.1-5.5,5.3-7.8c2.2-2.3,4.9-4.2,8-5.1
			c3.1-0.9,6.3-1.1,9.4-0.5l0,0.1c-3.1,0-6.2,0.3-9.1,1.3c-2.9,1-5.5,2.6-7.7,4.7c-2.2,2.1-4,4.7-5.4,7.4
			C393.8,696,392.7,698.9,391.9,701.9L391.9,701.9z"/>
	</g>
	<g class="st14">
		<path class="st10" d="M393.8,732c-2.1,0.5-4.2,1.5-6.1,2.6c-1.9,1.1-3.6,2.5-5.1,4.1c-1.5,1.6-2.8,3.3-3.9,5.2
			c-0.7,0.9-1.1,1.9-1.7,2.8c-0.3,0.5-0.5,1-0.7,1.5c-0.3,0.5-0.5,1-0.8,1.5l-0.1,0c0.3-1.1,0.5-2.2,0.9-3.2c0.4-1,0.8-2.1,1.4-3.1
			c1.1-2,2.6-3.7,4.2-5.3c1.6-1.6,3.5-2.9,5.5-3.9C389.4,733.1,391.5,732.3,393.8,732L393.8,732z"/>
	</g>
	<g class="st14">
		<path class="st10" d="M356.4,763c-1.8-0.8-3.9-0.8-5.8-0.3c-1.9,0.5-3.5,1.6-4.9,3l-0.5,0.5l-0.5,0.6l-0.9,1.1l-0.8,1.2
			c-0.3,0.4-0.6,0.8-0.8,1.2c-0.5,0.8-1,1.7-1.5,2.5c-0.5,0.9-0.9,1.7-1.5,2.6l-0.1,0c0.3-1,0.6-1.9,0.9-2.9
			c0.4-0.9,0.8-1.8,1.3-2.7c0.5-0.9,1.1-1.7,1.7-2.5l1-1.1l0.5-0.6l0.6-0.5c1.5-1.4,3.3-2.5,5.3-2.9
			C352.5,761.9,354.6,762,356.4,763L356.4,763z"/>
	</g>
	<g class="st1">
		<path class="st13" d="M350.3,759c2.3,0,4.6,0.5,6.8,1.2c2.2,0.7,4.3,1.7,6.2,3.1c1.9,1.3,3.7,2.8,5.2,4.6c0.8,0.9,1.4,1.9,2,2.8
			c0.6,1,1.1,2,1.7,3.1l0,0l-0.9-1.4c-0.3-0.5-0.6-1-0.9-1.4c-0.7-0.9-1.3-1.9-2.1-2.7l-1.1-1.3l-1.2-1.2c-0.4-0.4-0.8-0.8-1.3-1.1
			c-0.5-0.3-0.9-0.7-1.4-1c-1.9-1.3-3.9-2.4-6.1-3.1C354.9,759.7,352.6,759.1,350.3,759L350.3,759z"/>
	</g>
	<g class="st1">
		<path class="st13" d="M378.3,723.8c6,0.4,11.9,1.4,17.7,2.9c5.8,1.5,11.5,3.5,17,6c2.8,1.2,5.4,2.7,8,4.1l3.8,2.4
			c0.6,0.4,1.3,0.8,1.9,1.2l1.8,1.3c1.2,0.9,2.4,1.8,3.6,2.7l3.4,3c0.6,0.5,1.1,1,1.7,1.5l1.6,1.6l3.1,3.3l0,0
			c-4.3-4.2-8.5-8.4-13.5-11.8l-1.8-1.3c-0.6-0.4-1.3-0.8-1.9-1.2l-3.8-2.4c-2.6-1.4-5.2-2.9-8-4.1c-5.4-2.5-11.1-4.6-16.9-6.2
			C390.2,725.4,384.3,724.3,378.3,723.8L378.3,723.8z"/>
	</g>
	<g class="st1">
		<path class="st10" d="M422.5,673.2c1,1.5,2.3,2.8,3.7,3.9c1.4,1.1,3,2,4.7,2.6c1.7,0.6,3.4,1,5.2,1.1c0.9,0.2,1.8,0.1,2.7,0.1
			c0.9,0,1.8-0.1,2.7-0.1l0,0c-0.9,0.2-1.8,0.3-2.7,0.4c-0.9,0-1.8,0.1-2.7,0c-1.8-0.1-3.6-0.6-5.3-1.2c-1.7-0.7-3.3-1.6-4.7-2.7
			C424.7,676.1,423.4,674.8,422.5,673.2L422.5,673.2z"/>
	</g>
	<path class="st16" d="M102.3,950.2c0,0,116.8,33.8,289.6-85.6C392,864.6,234.4,950.2,102.3,950.2z"/>
	<path class="st15" d="M509.9,477.8c-0.3,1.2,207.2-46.1,258.6-16.2l12.5-28.5c0,0-19.9-69-64.9-16.3c0,0-20.1-25.9-32.6-8.6
		c0,0-36.9,7.7-38.1,23c0,0-5.1-68-37.1-29.7c0,0-47.3-5.7-47.3,14.4c0,0-26.8,2.3-26.8,17.9c0,0-11.5-3.8-15.1,9.9L509.9,477.8z"/>
	<path class="st15" d="M736.7,373.3c0,0-9.9-11-10.8,5.3c-1,16.3,11.9,2.1,11.9,2.1L736.7,373.3z"/>
	<circle class="st17" cx="589.4" cy="410.7" r="2.5"/>
	<circle class="st17" cx="625.9" cy="435.6" r="1.7"/>
	<circle class="st17" cx="693.8" cy="427.2" r="1.7"/>
	<circle class="st17" cx="553.9" cy="448.6" r="3.9"/>
	<circle class="st17" cx="616.6" cy="429.4" r="3.9"/>
	<ellipse class="st17" cx="752.5" cy="423.8" rx="0" ry="5"/>
	<circle class="st17" cx="725.8" cy="441" r="3.7"/>
	<path class="st18" d="M592,666.8c0,0,90.6-47.7,120.8-181.2C712.7,485.5,608.5,666.8,592,666.8z"/>
	<g>
		<path class="st19" d="M95.1,968.7c0,0,119.1,51.5,194.3,46.7v32c0,0,293.9-93.3,355.2-78.7v33.4c0,0,66.9,7.7,110,39.7l-44.6,43.2
			l39.7,81.5c0,0-101.7-46-193.6-45.3l2.1-32c0,0-69,13.2-175.5,50.1c0,0-119.8,35.5-181.8,32v-35.5c0,0-70.3-13.9-110.7-40.4
			l44.6-44.6L95.1,968.7z"/>
		<path class="st20" d="M272.7,1015.6l-67.6,40.9c0,0,23,5.6,84.3-9.1v-32L272.7,1015.6z"/>
		<path class="st20" d="M558.3,1089.2c0,0,58.5-16.7,88.5-11.1l-78,43.4l-12.5-0.2L558.3,1089.2z"/>
		<path class="st20" d="M644.3,1007.7c0,0,62.8,15.1,79,27.9c0,0-42-16-80.4-21.2L644.3,1007.7z"/>
		<path class="st20" d="M637.8,1018.6c0,0,62.8,15.1,79,27.9c0,0-42-16-80.4-21.2L637.8,1018.6z"/>
		<path class="st20" d="M629.5,1028.9c0,0,62.8,15.1,79,27.9c0,0-42-16-80.4-21.2L629.5,1028.9z"/>
		<path class="st20" d="M621,1039.9c0,0,62.8,15.1,79,27.9c0,0-42-16-80.4-21.2L621,1039.9z"/>
		<path class="st20" d="M610,1049c0,0,62.8,15.1,79,27.9c0,0-42-16-80.4-21.2L610,1049z"/>
		<path class="st20" d="M600.6,1058.1c0,0,62.8,15.1,79,27.9c0,0-42-16-80.4-21.2L600.6,1058.1z"/>
		<path class="st20" d="M604.2,1072c0,0,62.8,15.1,79,27.9c0,0-42-16-80.4-21.2L604.2,1072z"/>
		<path class="st20" d="M610,1086c0,0,62.8,15.1,79,27.9c0,0-42-16-80.4-21.2L610,1086z"/>
		<path class="st20" d="M597.1,1094.2c0,0,74.9,18,94.3,33.3c0,0-50.2-19.1-95.9-25.2L597.1,1094.2z"/>
		<path class="st20" d="M580,1103.8c0,0,96.1,20,121,37.1c0,0-64.4-21.2-123-28.1L580,1103.8z"/>
		<path class="st20" d="M195.2,1131.8c0,0-61.3-20.2-76.5-34.4c0,0,40.6,19.4,78.3,27.7L195.2,1131.8z"/>
		<path class="st20" d="M202.6,1121.5c0,0-61.3-20.2-76.5-34.4c0,0,40.6,19.4,78.3,27.7L202.6,1121.5z"/>
		<path class="st20" d="M211.7,1111.9c0,0-61.3-20.2-76.5-34.4c0,0,40.6,19.4,78.3,27.7L211.7,1111.9z"/>
		<path class="st20" d="M219,1100.6c0,0-61.3-20.2-76.5-34.4c0,0,40.6,19.4,78.3,27.7L219,1100.6z"/>
		<path class="st20" d="M232.8,1093.5c0,0-61.3-20.2-76.5-34.4c0,0,40.6,19.4,78.3,27.7L232.8,1093.5z"/>
		<path class="st20" d="M230.3,1081c0,0-61.3-20.2-76.5-34.4c0,0,40.6,19.4,78.3,27.7L230.3,1081z"/>
		<path class="st20" d="M233.2,1066.8c0,0-61.3-20.2-76.5-34.4c0,0,40.6,19.4,78.3,27.7L233.2,1066.8z"/>
		<path class="st20" d="M233.8,1055.6c0,0-61.3-20.2-76.5-34.4c0,0,40.6,19.4,78.3,27.7L233.8,1055.6z"/>
		<path class="st20" d="M236.4,1044.4c0,0-65.6-22.1-81.8-37.7c0,0,43.4,21.3,83.8,30.4L236.4,1044.4z"/>
		<path class="st20" d="M260,1036.5c0,0-85.7-21.1-107.8-38.3c0,0,57.3,21.9,109.7,29.5L260,1036.5z"/>
		<path class="st19" d="M201,1135.9v-78.4c0,0,58.1-0.7,88.5-10.1"/>
		<polyline class="st19" points="644.6,1002.2 646.7,1078.1 556.8,1089.5 		"/>
		<path id="SVGID_x5F_3_x5F_" class="st21" d="M220.8,1140.9c112.1,10.8,354-158.1,412-84"/>
		<text>		<textPath  xlink:href="#SVGID_x5F_3_x5F_" startOffset="3.906%">
<tspan  class="st15" style="font-family:'MyriadPro-Regular'; font-size:56.4141px;">The Vikings’ Beer</tspan>		</textPath>
</text>
	</g>
	<path class="st22" d="M248.7,300.7c0-0.3-0.1-0.5-0.3-0.6c-0.5-0.8-1-1-1.6-0.7c-0.1,0-0.1,0.1-0.1,0.1c0.5,0.9,1,1.8,1.6,2.7
		c0.1-0.3,0.3-0.5,0.4-0.7L248.7,300.7z"/>
	<g>
		<polygon class="st23" points="703.8,126.7 703.7,127 698.5,140.3 690.8,126.8 691,126.8 		"/>
		<polygon class="st23" points="671.4,126.5 678.5,140.4 683.8,126.8 		"/>
		<path class="st24" d="M699.6,174.8c-0.4,0-0.8-0.1-1.3-0.2l-8.5-6c0,0-36.5-3.3-46.2-20l-23.2,0.2l-1.3,0c0,0-7.2-22.8,9.4-15.9
			c0,0,0,0,0,0c0,0-2.1-10.7,6.2-7.3c0,0,0,0,0,0c0.1,0.1,0.3,0.1,0.4,0.2c9.9,4.3,19.6,9,29.3,13.8c7.7,3.8,15.4,7.8,22.8,12.2
			c5.5,3.2,11.5,6.6,15.9,11.2C707,167.1,705.3,175,699.6,174.8z"/>
		<path class="st24" d="M539.8,163.9l4.4-6.7C543.4,159.6,541.9,161.9,539.8,163.9z"/>
		<path class="st24" d="M582.2,87.7C582.2,87.7,582.2,87.7,582.2,87.7L582.2,87.7c-32.6,16.9-38,69.4-38,69.4l-13.8-31.2l25.4-15.8
			l-11.6-20.5l28.5-8.4l0.3,0.2L582.2,87.7z"/>
		<path d="M723.4,112.9c-0.3,0.3-0.5,0.5-0.8,0.7c0,0-16.4-1-22.5-14.3c-0.1-0.2,0-0.5,0.2-0.9c1.2-1.8,5.9-4.8,6.5-5.1
			c5.1-2.7,12.8-3.9,17.7,0.1C730.8,98.6,728.6,107.9,723.4,112.9z"/>
		<path class="st24" d="M719.5,105.3c0,0-0.4-7.5-5.7-5.8S719.5,105.3,719.5,105.3z"/>
		<path class="st23" d="M647.7,140.7l-9.7,7.1c0,0,6-0.3,6.6,0.9c0,0,2.8,4.1,3.2,4.5S647.7,140.7,647.7,140.7z"/>
		<polygon class="st23" points="652.3,156.8 663.4,146.8 663.6,162.4 		"/>
		<path d="M503.4,197.1c0.1,0,0.3,0,0.4,0C503.7,197.1,503.6,197.2,503.4,197.1C503.4,197.2,503.4,197.2,503.4,197.1z"/>
		<path d="M573,81.5l9.2,6.2c0,0,0,0,0,0l0,0c-0.9,0.5-4.5-1.8-5.3-2.3C575.2,84.4,574,83,573,81.5z"/>
		<path d="M587.8,86.7c-20.9-6.6-19.2-35.4-19.2-35.4l30.9,19.8C614.8,81.6,587.8,86.7,587.8,86.7z"/>
		<path d="M630.4,127c-1.7,1.7-1,4.1-0.8,6.2c-0.4,0-0.7-0.1-1.1-0.2c0,0-2.1-10.7,6.2-7.3C633.1,125.7,631.4,125.9,630.4,127z"/>
		<path d="M699.6,174.8c-0.4,0-0.8-0.1-1.3-0.2l-8.5-6c0,0-36.5-3.3-46.2-20l-23.2,0.2l-1.3,0c0,0-7.2-22.8,9.4-15.9
			c-1.3-0.3-2.6-0.8-4.1-0.8c-5.9,0.1-6.1,6.7-5.3,11.1c0.3,1.9,0.8,3.7,1.3,5.5c0,0,10.5-1,17.7-1.1h0.2c0.1,0,0.2,0,0.4,0
			c0.6,0,1.2,0,1.8,0c0.2,0,0.4,0,0.5,0c0.2,0,0.3,0,0.5,0c2.1,0.1,3.4,0.3,3.2,0.9c-0.3,0.9,2.1,3.3,2.5,3.8
			c0.2,0.2,0.4,0.4,0.6,0.6c0,0,0,0,0,0c1.3,1.4,2.8,2.6,4.4,3.7c2.1,1.4,4.3,2.6,6.6,3.7c1.6,0.7,3.1,1.4,4.8,2
			c7,2.6,14.4,4,21.8,5c2.1,0.3,4.5,0.1,6.3,1.2c2.1,1.2,4.2,2.4,6,4C698.3,173.1,699.3,173.9,699.6,174.8z"/>
		<path d="M637.7,106c-8.3,0.1-15-6.6-15.1-14.9c-0.1-8.3,6.6-15,14.9-15.1c8.3-0.1,15,6.6,15.1,14.9
			C652.6,99.2,646,105.9,637.7,106z"/>
		<path d="M621.6,67.4l2.6-6.8c0.1-0.2,0.3-0.3,0.6-0.2l44,16.9c0.2,0.1,0.3,0.3,0.3,0.5l-2.6,6.8c-0.1,0.2-0.3,0.3-0.5,0.2
			l-44-16.9C621.6,67.9,621.5,67.6,621.6,67.4z"/>
		<path d="M723.5,112.3c0,0,0,0.3-0.1,0.7c-0.3,0.3-0.5,0.5-0.8,0.7c0,0-16.4-1-22.5-14.3c-0.1-0.2,0-0.5,0.2-0.9
			c0.3-0.2,0.6-0.3,0.7-0.5C700.9,97.9,704.9,110.1,723.5,112.3z"/>
		<path d="M691,126.8l12.8-0.1l-0.1,0.3C699.4,126.9,695.2,126.8,691,126.8z"/>
		<path class="st15" d="M652.6,90.9c0.1,8.3-6.6,15-14.9,15.1c-8.3,0.1-15-6.6-15.1-14.9c-0.1-8.3,6.6-15,14.9-15.1
			C645.7,76,652.5,82.6,652.6,90.9z"/>
		<ellipse transform="matrix(1 -8.053761e-03 8.053761e-03 1 -0.717 5.1379)" cx="637.6" cy="91.6" rx="7.8" ry="7.8"/>
		<path class="st24" d="M587.8,86.7c-20.9-6.6-19.2-35.4-19.2-35.4l30.9,19.8C614.8,81.6,587.8,86.7,587.8,86.7z"/>
		<path class="st24" d="M669,77.9l-2.6,6.8c-0.1,0.2-0.3,0.3-0.5,0.2l-44-16.9c-0.2-0.1-0.3-0.3-0.2-0.6l2.6-6.8
			c0.1-0.2,0.3-0.3,0.6-0.2l44,16.9C668.9,77.4,669,77.7,669,77.9z"/>
		
			<ellipse transform="matrix(1 -8.053761e-03 8.053761e-03 1 -0.6736 5.1844)" class="st25" cx="643.4" cy="86.2" rx="2.6" ry="2.6"/>
	</g>
	<path class="st24" d="M123.7,241l-2.1-27l22.8,3l19.2-18.5l13.9,18.6l24.3-1.9l4.3,25.5l22.4,6.9l0.8,25.3l24.9,11l-2.5,27.5
		l20.2-1.6l12.4,28c0,0-30.9,9.4-43.4-17.2C228.3,294,191.3,262,191.3,262s-16.8-38.6-35.5-34L123.7,241z"/>
	<path class="st26" d="M722.6,113.7c0,0-16.4-1-22.5-14.3c-0.1-0.2,0-0.5,0.2-0.9c-3.7,1.8-19.5,1.4-25.4,1.1
		c-1.4-0.1-2.3-0.1-2.3-0.1c-5.2-1.5-3.6-6.2-1.3-9.5c2.5-3.7,4.1-5.3,1.5-9.8c-4.3-7.4-13.6-11.8-20.8-15.7
		c-4.8-2.6-9.7-5-14.8-7.2c-3.2-1.4-6.6-2.1-9.9-3.1c-1.2-0.4-2.4-0.8-3.6-1.3c-4-1.7-7.6-4-11.2-6.5c-4.3-3-8.5-6.3-12.3-9.9
		l0.2,24.4c-8.9,0.1-23.8-10.7-30.8-16.3c-2.3-1.8-3.8-3.1-3.9-3.2c1,0.9-0.1,4.3-0.3,5.5c-0.3,1.9-0.5,4-0.5,5.8
		c0.1,2.3,0.3,4.6,0.6,7c0.7,4.8,1.9,9.6,3.7,14.1c0.9,2.2,1.7,4.5,2.9,6.5c0.2,0.4,0.5,0.8,0.7,1.2l9.2,6.2c0,0,0,0,0,0l0,0
		c-32.6,16.9-38,69.4-38,69.4c-0.8,2.5-2.3,4.7-4.4,6.8c-0.9,0.9-1.9,1.7-2.9,2.5c-10.7,7.8-30.7,11.8-49.6,13.9h-1.4
		c-13.4,0-27.6,0-42.2-0.1c-15,0-30.3,0-45.3-0.1c-14.7,0-29,0-42.2-0.1c-18.3,0-34.7,0-47.4-0.1c-16.6,0-27,0-27,0
		c-0.4-0.1-0.9-0.1-1.3-0.1c-1.3-0.1-2.7-0.2-4.1-0.3c-1.4-0.2-2.9-0.2-4.4-0.2l-2.1,0c-1.7,0-3.4,0.1-5.1,0.2
		c-0.8,0-1.5,0.1-2.2,0.1h0c-0.7,0-1.4,0-2.1,0c-1.3,0.1-2.8,0.3-4.3,0.4c-1.8,0.7-3.8,2-5.9,4c-2.1,2-4.4,4.2-6.7,6.6
		c-0.7,0.7-1.5,1.5-2.2,2.2c-0.8,0.7-1.5,1.4-2.2,2.1c0,0,0,0,0,0.1c-0.5,0.3-0.9,0.6-1.3,0.9c-2.1,1.9-4,3.9-6.1,5.7
		c-1.8,1.5-4.1,2.7-5.4,4.8c-1,1.7-1.1,4-1.3,6v0c0,0.4,0,0.8,0,1.1c-0.2,3.5-0.2,7.5,0.2,11.7l0.1,1.7c0,0.6,0.1,1.1,0.4,1.6
		c0.4,3.3,0.9,6.5,1.6,9.6c0.7,3.1,1.5,5.8,2.4,7.9c1.5,2.9,4.1,5.4,7.7,7.5c3.6,2.1,7.4,4,11.5,5.4c0.1,0,0.1,0,0.2,0.1
		c0.2,0.2,0.4,0.4,0.5,0.4c0.2,0.1,0.3,0,0.5-0.2l50.4,19.5h0l5.9,2.3c9.5,3.5,15.6,6.3,18.5,8.3c0.2,0.2,0.5,0.3,0.7,0.5
		c0.3,0.2,0.7,0.5,1,0.7c2.1,1.5,3.7,3,5,4.4c1.8,1.7,3.3,3.9,4.4,6.5c1.2,2.6,2.2,5.3,3,8c0.7,2.4,1.2,4.6,1.5,6.7
		c0.3,2.1,0.6,4.1,0.8,6c0.2,2.2,0.2,4,0,5.5c-0.1,1.4-0.3,2.2-0.6,2.7c-0.8,0.7-1.7,1.4-2.7,2c-2.9,1.8-6.3,3.2-10.2,4.1
		c-1.6,0.4-3.2,0.7-4.9,1.1h0c-3.9,0.7-7.9,1.2-12.1,1.6c-1.6,0.1-3.3,0.2-5,0.2c-1.2,0.1-2.5,0-3.7,0c-3.1-0.1-6.1-0.5-9.3-0.9
		c-1.2-0.2-2.3-0.3-3.5-0.5h0c-1.8-0.3-3.5-0.6-5.3-1c-2.3-0.5-4.5-1-6.7-1.7c-5.1-1.5-9.5-3-13.4-4.8c-3-1.3-5.4-2.6-7.2-4
		c-0.7-0.6-1.3-1.1-1.9-1.8c-0.6-0.8-0.7-1.6-1.1-2.4c-0.2-0.3-0.4-0.6-0.5-0.9c-0.1-0.4,0-0.8,0-1.1c0-0.9-0.1-1.7,0-2.6
		c0-0.8,0.4-1.6,0.4-2.4c0-1-0.9-2.1-1.3-3c-0.1-0.2-0.3-0.5-0.4-0.7c-0.1-0.1-0.1-0.2-0.2-0.3c-0.4-0.7-0.8-1.5-1.1-2.2
		c-1.1-2.1-2.2-4.3-3.4-6.4c-6.1-10.5-12.6-20.8-19.2-31c-8.8-13.6-17.8-27-29.3-38c-6.6-6.3-13.7-11.6-21.1-14.9
		c-11.5-5.2-23.9-5.9-36.8,1c-5.4,2.9-11.3,7.1-14.6,13.1c-0.6,1.2-1.2,2.4-1.6,3.8c-0.4,1.5-0.7,3-0.7,4.6c0,0.8,0,1.7,0.2,2.5
		c0.1,0.2,0.7,2.8,0.8,2.8c1.2-1.1,4.5-2.9,8.6-4.8c6.5-3,14.9-6.3,19.9-7.5c0.2,0,0.4,0,0.6-0.1c1.4-0.2,2.8-0.1,4.2,0.1
		c1.7,0.4,3.3,1.1,4.9,1.9c1.9,1.1,3.8,2.5,5.5,4c2.2,2,4.3,4.1,6.3,6.4c2.6,3,4.9,6,7.1,9.3c2.8,4,5.4,8.1,8,12.4
		c3.1,5.2,6,10.5,8.9,15.9c3.4,6.5,6.6,13,9.8,19.7c3.8,7.9,7.4,15.8,10.9,23.9c2,4.5,3.9,9.1,5.9,13.6c0.5,1.2,1,2.4,1.5,3.6
		c0.5,1.1,0.8,2.2,1.2,3.2c0.2,0.5,0.5,1,0.8,1.4c0.5,0.6,1,1.1,1.5,1.7c0.5,0.6,0.9,1.2,1.4,1.7c0.8,0.8,1.7,1.5,2.6,2.2
		c2.5,1.7,5.5,3.4,9.2,5c4.5,2,9.7,4,15.5,5.8c5,1.5,10.2,2.7,15.6,3.3c0.8,0.1,1.5,0.2,2.3,0.3c2.8,0.3,5.5,0.6,8.3,0.8
		s5.6,0.1,8.4-0.1l4.6-0.4c2.4-0.3,4.6-0.7,6.6-0.9c2.1-0.3,4.1-0.6,6.2-1.2c1.7-0.5,3.5-1.1,5.3-1.8c1.8-0.7,3.7-1.7,5.7-2.9
		c1.8-1.1,4.2-3.7,7.1-7.6c0-0.1,0.1-0.1,0.1-0.2c2.9-3.8,6-8,9.5-12.2c1.2-1.6,2.3-3.2,3.6-4.8c1.2-1.6,2.6-3.1,3.9-4.5
		c0.1-0.2,0.3-0.3,0.6-0.6c0.2-0.2,0.4-0.4,0.6-0.6c0.6-0.7,1.3-1.3,1.9-2.1c0.3-0.3,0.6-0.6,0.9-0.9c1.1-1,2.1-2.1,3.2-3.3
		c0.2-0.3,0.6-0.7,1-1c0.3-0.3,0.7-0.7,0.9-1c3.8-3.5,7.1-6.7,10.1-9.6c3-2.9,4.5-4.8,4.6-5.5c0.2-1.5,0.4-3.1,0.5-4.7
		c0.2-1.5,0.1-3.1,0-4.6l-0.1-1.2c0-0.5-0.1-0.9-0.3-1.2c-0.8-5.2-2.2-10.1-4.5-14.9c-2.4-4.7-4.9-8.9-7.8-12.4
		c-3.8-5-8.9-9.3-15.2-13.1c-1.1-0.7-2.2-1.3-3.4-1.9c-3.8-2-7.8-4-11.9-5.8c-1.1-0.5-2.1-0.9-3.2-1.4c-3.4-1.5-6.8-2.8-10.4-4.2
		l-31.3-11l-6.4-2.2c-7.3-2.8-12.4-5.2-15.3-7.4c-2.9-2-5-4.2-5.5-7.8c-0.4-3-0.7-5.8-0.8-8.8c0-1.4,0.1-2.6,0.3-4
		c0.1-1.5,0.3-3,0.5-4.5h0.2l2.3,0c1.5,0,3.1,0,4.6,0.1c1.5,0.1,3,0.3,4.3,0.5c0.9,0.1,1.9,0.2,2.9,0.4c0.2,0,0.5,0.1,0.7,0.1
		c1.2,0.2,2.5,0.5,3.7,0.7c0.9,0.2,16.5,0.2,40,0.1c2.8,0,5.8,0,8.8,0c5.9,0,12.1-0.1,18.7-0.1c5.7,0,11.6-0.1,17.6-0.1
		c5.7,0,11.4-0.1,17.3-0.1c4.8-0.1,9.7-0.1,14.7-0.2c2.7,0,5.5,0,8.2-0.1h0c14.2-0.1,28.6-0.3,42.8-0.5c0.2,0,0.3,0,0.5,0
		c14-0.2,27.6-0.4,40.5-0.6h0c0.2,0,0.4,0,0.7,0c6.8-0.1,13.4-0.2,19.7-0.4h0.4c3.3-0.4,6.7-0.4,10.1-0.2c1.7,0.1,3.4,0.2,5.1,0.2
		c0.2,0,0.4,0,0.6,0c0.4,0,0.8,0,1.2,0c2.6,0.1,5.1,0.2,7.7,0.3c2.4,0.1,4.8,0.2,7.2,0.2c3.8,0.1,7.6,0.1,11.5,0
		c2.2-0.1,4.5-0.2,6.7-0.3c2.1-0.1,4.1-0.4,6.2-0.7c1.8-0.3,3.7-0.6,5.4-1.1c2.8-0.8,5.5-2.1,8.3-3c0.3-0.1,0.7-0.2,1-0.3
		c1.2-0.4,2.4-0.7,3.7-1c1.1-0.3,2.1-0.5,3.2-0.7c1.3-0.3,2.7-0.6,4-0.9c3.9-0.9,7.7-2,11.2-3.9c1.9-1.1,3.3-3.5,4.9-5.1
		c6.3-6.3,14.5-10.4,23.4-11c4.4-0.3,8.8,0.3,13,1.7c0.6,0.2,1.3,0.4,1.9,0.7c1.8,0.7,3.5,1.5,5.1,2.5c1,0.5,3.4,1.6,3.8,2.6
		c0.1,0.2,0.1,0.4,0.1,0.5c0.3,4.3,1.8,8.7,4.6,12.1c3.2,3.8,7.6,5.4,12.6,5c2.7-0.3,5.6-0.8,8.1-1.6c3.6-1.2,6.9-3.2,10.1-5.4h0
		c0.7-0.5,1.5-1,2.2-1.5c4-2.9,7.8-6,11.5-9.3c0.6-0.5,1.5-1,1.6-1.8c0-0.1,0-0.2,0-0.3c-0.4,0-0.8-0.1-1.3-0.2l-3.7-2.6l-4.8-3.3
		c0,0-0.2,0-0.5,0c-0.1,0-0.2,0-0.4,0c-0.1,0-0.2,0-0.3,0c0,0,0,0-0.1,0c-0.2,0-0.4,0-0.7-0.1c-0.2,0-0.4-0.1-0.7-0.1
		c-0.4,0-0.9-0.1-1.4-0.2c-0.4-0.1-0.8-0.1-1.2-0.2c-0.3,0-0.7-0.1-1-0.2c-0.2,0-0.4-0.1-0.6-0.1c-0.4-0.1-0.8-0.1-1.2-0.2
		c-0.3,0-0.5-0.1-0.8-0.1c-0.5-0.1-1.1-0.2-1.6-0.3c-0.8-0.2-1.7-0.3-2.6-0.5c-0.4-0.1-0.9-0.2-1.4-0.3c0,0,0,0-0.1,0
		c0,0-0.1,0-0.1,0c-1.3-0.3-2.7-0.6-4-1c-0.3-0.1-0.6-0.2-1-0.3c-0.7-0.2-1.4-0.4-2.1-0.6c-0.6-0.2-1.2-0.4-1.8-0.6
		c-0.6-0.2-1.2-0.4-1.8-0.6c-0.1,0-0.2-0.1-0.3-0.1c-0.5-0.2-1-0.4-1.5-0.5c-0.3-0.1-0.6-0.2-0.9-0.3c-0.6-0.2-1.2-0.5-1.8-0.7
		c-0.5-0.2-1.1-0.5-1.6-0.7c-0.6-0.3-1.3-0.6-1.9-0.9c-0.5-0.3-1-0.5-1.5-0.8c-0.3-0.1-0.5-0.3-0.8-0.5c-0.8-0.4-1.6-0.9-2.3-1.4
		c-0.3-0.2-0.5-0.3-0.7-0.5c-0.3-0.2-0.5-0.3-0.8-0.5c-0.2-0.1-0.3-0.3-0.5-0.4c-0.2-0.1-0.3-0.3-0.5-0.4c-0.3-0.3-0.6-0.5-0.9-0.8
		c0,0,0,0,0,0c-0.1-0.1-0.2-0.2-0.3-0.3c-0.2-0.2-0.4-0.3-0.6-0.5c-0.1-0.1-0.3-0.3-0.4-0.4c-0.1-0.1-0.3-0.3-0.4-0.4
		c-0.2-0.2-0.3-0.3-0.5-0.5c-0.1-0.1-0.2-0.2-0.3-0.3c-0.2-0.2-0.4-0.4-0.5-0.6c-0.2-0.2-0.4-0.4-0.5-0.6c-0.1-0.2-0.3-0.4-0.4-0.6
		c-0.1-0.1-0.2-0.3-0.3-0.4c-0.1-0.1-0.2-0.3-0.3-0.4c-0.2-0.3-0.3-0.5-0.5-0.8l-23.2,0.2l-1.3,0c0,0-7.2-22.8,9.4-15.9c0,0,0,0,0,0
		c0,0-2.1-10.7,6.2-7.3c0,0,0,0,0,0c4.1,0.3,8.2,0.3,12.3,0.3c4.7,0.1,9.5,0.2,14.2,0.2c3.4,0,6.8,0.1,10.2,0.2
		c6.4,0.1,12.8,0.2,19.2,0.3c0.1,0,0.2,0,0.3,0h0.2l12.8-0.1l-0.1,0.3c4.6,0.1,9.2,0.1,13.7,0.2c4.5-1.7,5.7-11.5,6-14.2
		C723.1,113.2,722.9,113.5,722.6,113.7z M568.6,51.3l30.9,19.8c15.3,10.5-11.7,15.6-11.7,15.6C566.9,80.1,568.6,51.3,568.6,51.3z
		 M637.7,106c-8.3,0.1-15-6.6-15.1-14.8c-0.1-8.3,6.6-15,14.9-15.1c8.3-0.1,15,6.6,15.1,14.9C652.6,99.2,646,105.9,637.7,106z
		 M622,68.1l-0.2-0.1c-0.2-0.1-0.3-0.3-0.2-0.6l2.6-6.8c0.1-0.2,0.3-0.3,0.6-0.2l0.2,0.1l43.8,16.8c0.2,0.1,0.3,0.3,0.3,0.6
		l-2.6,6.8c-0.1,0.2-0.3,0.3-0.5,0.2L622,68.1z"/>
	<path class="st27" d="M513.9,196.9c-3.2,0.1-6.6,0.1-10.1,0.2C507.1,196.7,510.5,196.8,513.9,196.9z"/>
	<g>
		<g>
			<path class="st27" d="M394.4,307.4h1.3c0,0,0.1,0,0.1-0.1l7.5-3.7l-5.8,6.1c-0.2,0.2-0.4,0.4-0.7,0.7l-2.4,1.7V307.4z
				 M484.5,178.2c-0.4,0-0.8-0.1-1.2-0.3c-0.5-0.2-0.8-0.5-1-0.7l-0.5-0.5c-0.1-0.1-0.3-0.2-0.4-0.3l-0.1-0.1l-0.2-0.2
				c-0.1-0.1-0.1-0.1-0.1-0.2l-8.4-8.8c-0.2-0.1-0.3-0.2-0.5-0.4c-0.1-0.1-0.4-0.3-0.4-0.3l-0.4-0.4c0,0,0,0,0,0c0,0-0.1,0-0.1-0.1
				l-0.2-0.1l-0.1-0.1c-0.4-0.3-0.6-0.6-0.9-0.9l-0.3-0.3l0-0.1c-0.4-0.6-0.7-1.3-0.7-2.1l0-0.4c0-0.4,0.1-0.7,0.2-0.9
				c0.1-0.4,0.5-0.8,1.2-1.5l0.3-0.4c0.4-0.5,0.9-1,1.5-1.5l0.1-0.1c0,0,0.1-0.1,0.1-0.1l1.1-1.1l0.1,0c0.2-0.2,0.5-0.4,0.8-0.6
				l6.3-5.4h0.1c0,0,0,0,0,0v-0.2l0.6-0.4c0.2-0.1,0.3-0.2,0.5-0.4c0.2-0.2,0.4-0.3,0.6-0.5c0.6-0.4,1.2-0.7,1.9-0.7h0.4l0.3,0.1
				c0.2,0.1,0.4,0.2,0.6,0.3v-0.6l10.6,10l0,0.1l0.3,0.1l0.2,0.5l0,0l0.1,0.1c0.1,0.1,0.3,0.3,0.5,0.6c0.3,0.4,0.7,0.7,0.9,1
				c0.5,0.6,0.8,1.2,0.8,1.9c0,0.6-0.2,1.2-0.6,1.9l-0.2,0.3c-0.2,0.3-0.5,0.7-0.8,1.1c-0.1,0.2-0.3,0.4-0.5,0.6l0,0l-0.2,0.2
				c-0.1,0.1-0.3,0.3-0.3,0.3c-0.2,0.2-0.3,0.4-0.5,0.6l-8.2,8.6v0l-0.3,0.5l-0.2,0.4l-0.2,0.1l-0.1,0.1l-0.2,0c0,0-0.1,0.1-0.1,0.1
				c-0.2,0.2-0.3,0.3-0.5,0.3c-0.2,0.2-0.5,0.4-0.7,0.5C485.4,178.1,484.9,178.2,484.5,178.2z"/>
			<path class="st24" d="M484.8,149.6c0.3,0.1,0.6,0.3,0.9,0.6c0.4,0.3,0.7,0.6,1,0.9c0.2,0.1,0.3,0.2,0.5,0.4
				c0.2,0.1,0.3,0.2,0.3,0.3v-0.4l2.5,2.4l5.2,5c0.1,0.2,0.2,0.3,0.3,0.4c0,0.1,0.2,0.2,0.4,0.3c0.1,0.2,0.2,0.3,0.4,0.4
				c0.1,0.1,0.2,0.2,0.3,0.4c0.4,0.4,0.7,0.7,1,1.1c0.3,0.4,0.5,0.7,0.5,0.9c0,0.3-0.2,0.6-0.4,1.1c-0.3,0.4-0.6,0.8-0.9,1.3
				c0,0.1-0.2,0.2-0.3,0.3c-0.1,0.1-0.3,0.2-0.3,0.4c-0.1,0.1-0.2,0.2-0.4,0.4c-0.1,0.2-0.3,0.3-0.4,0.5l-8.4,8.8
				c-0.1,0.2-0.1,0.3-0.2,0.4c0,0,0,0,0,0.1h0c0,0-0.1,0.1-0.1,0.1c-0.1,0.1-0.2,0.2-0.4,0.3c-0.1,0.1-0.3,0.2-0.5,0.3
				c-0.1,0.2-0.4,0.4-0.6,0.5c-0.2,0.2-0.4,0.2-0.6,0.2c-0.2,0-0.4-0.1-0.5-0.2c-0.2,0-0.4-0.2-0.5-0.4l-0.6-0.6
				c-0.2-0.1-0.3-0.2-0.4-0.3c-0.1-0.2-0.2-0.3-0.3-0.4l-8.7-9.1c-0.1,0-0.2,0-0.3-0.2c-0.2-0.1-0.3-0.2-0.5-0.3l-0.3-0.3
				c-0.1-0.1-0.3-0.2-0.4-0.3c-0.4-0.3-0.6-0.7-0.9-1c-0.3-0.4-0.4-0.8-0.4-1.3l0-0.5c0-0.2,0-0.3,0.1-0.4c0,0,0.3-0.4,0.8-0.9
				c0.5-0.5,1.1-1.2,1.8-1.8c0.1,0,0.2-0.2,0.3-0.3l0.3-0.3c0.3-0.3,0.5-0.5,0.8-0.8c0.3-0.2,0.5-0.4,0.8-0.6l5.9-5.1
				c0.1,0,0.2-0.1,0.3-0.2c0.2-0.1,0.3-0.3,0.5-0.3c0-0.1,0-0.2,0.1-0.2c0.1-0.1,0.2-0.1,0.2-0.2c0.4-0.3,0.7-0.6,1.1-0.8
				c0.4-0.3,0.7-0.4,1-0.4H484.8 M396.4,308.7c-0.2,0.2-0.3,0.3-0.5,0.5v-0.3h0.2C396.1,308.8,396.3,308.7,396.4,308.7 M484.4,144.4
				v2.2c-1.1,0.1-2,0.6-2.4,0.9l-0.1,0l-0.1,0c-0.2,0.2-0.4,0.3-0.7,0.5c-0.1,0.1-0.3,0.2-0.4,0.3l-1.2,0.9v0.2l0,0l-5.8,5
				c-0.3,0.2-0.6,0.4-0.9,0.7l-0.1,0.1l-0.1,0.1c-0.1,0.1-0.3,0.3-0.4,0.4c-0.1,0.1-0.2,0.3-0.4,0.4l0,0l0,0l-0.2,0.3
				c0,0-0.1,0.1-0.1,0.1c-0.6,0.6-1.2,1.1-1.6,1.6l-0.3,0.3c-0.6,0.6-1.2,1.2-1.5,1.9c-0.1,0.3-0.3,0.8-0.3,1.5v0l0,0l0,0.4
				c0,1.1,0.3,2.1,0.9,3l0.1,0.1l0.1,0.1l0.2,0.2c0.3,0.3,0.6,0.7,1.1,1.1l0.1,0.1l0.1,0.1l0.1,0.1l0,0l0.1,0.1l0.2,0.2l0.2,0.2
				c0.1,0.1,0.2,0.1,0.2,0.2c0.2,0.1,0.3,0.3,0.5,0.4l8.2,8.6l0.2,0.3l0.3,0.3l0,0c0.1,0.1,0.2,0.2,0.4,0.3l0.4,0.4
				c0.2,0.2,0.7,0.7,1.4,1c0.6,0.3,1.2,0.4,1.8,0.4c0.7,0,1.5-0.2,2.1-0.6c0.3-0.2,0.6-0.4,0.8-0.6c0.1,0,0.1-0.1,0.2-0.1h0.5
				l0.3-0.5l0.3-0.1l0.3-0.8c0.1-0.1,0.1-0.2,0.2-0.3l8.1-8.5c0.2-0.2,0.4-0.4,0.6-0.6c0,0,0,0,0,0c0.1-0.1,0.2-0.2,0.3-0.3l0.2-0.3
				c0.2-0.2,0.4-0.4,0.6-0.7c0.3-0.4,0.6-0.8,0.8-1.1l0.1-0.2l0.1-0.1l0.1-0.1c0.6-1,0.8-1.8,0.8-2.6v-0.1l0-0.1
				c0-1-0.5-1.9-1.2-2.8c-0.3-0.3-0.5-0.6-0.9-1c-0.2-0.3-0.4-0.5-0.5-0.6l-0.4-0.8l-0.5-0.2l-0.2-0.2l-5.2-5l-2.5-2.4L484.4,144.4
				L484.4,144.4z M410,298.5l-14.8,7.4h-2.4v3v0.3v5.8l4.7-3.4c0.4-0.3,0.7-0.6,1-0.9L410,298.5L410,298.5z"/>
		</g>
		<g>
			<path class="st27" d="M447.9,178.5c-0.4,0-0.8-0.1-1.1-0.3c-0.4-0.2-0.7-0.4-0.9-0.6l-0.5-0.5c-0.2-0.2-0.4-0.3-0.5-0.4l-0.1-0.1
				c0,0-0.2-0.3-0.2-0.3l-1.7-1.8l-6.7-7.1c-0.2-0.1-0.3-0.2-0.5-0.4l-0.4-0.3l-0.4-0.4c0,0-0.3-0.2-0.3-0.2l-0.1-0.1
				c-0.3-0.3-0.6-0.6-0.8-0.9c-0.1-0.1-0.3-0.4-0.3-0.4l0-0.1c-0.4-0.6-0.6-1.3-0.6-2.1l0-0.4c0-0.4,0.1-0.7,0.2-0.9
				c0.2-0.4,0.5-0.8,1.2-1.5l0.4-0.4c0.4-0.4,0.9-0.9,1.5-1.4c0-0.1,0.1-0.1,0.1-0.1l1.1-1.2l0.1-0.1c0.3-0.2,0.5-0.4,0.8-0.6
				l6.3-5.4h0.1c0,0,0,0,0,0v-0.2l0.6-0.5c0.2-0.1,0.3-0.3,0.5-0.4c0.2-0.2,0.4-0.3,0.6-0.5l0.1-0.1c0.5-0.3,1.1-0.6,1.7-0.7l0.5,0
				l0.3,0.1c0.2,0.1,0.4,0.2,0.6,0.3v-0.6l10.6,10l0,0.1l0.3,0.1l0.2,0.5l0,0l0.2,0.2c0.1,0.1,0.3,0.3,0.4,0.5
				c0.3,0.3,0.5,0.6,0.8,0.9l0.1,0.1c0.6,0.6,0.8,1.3,0.9,1.9c0,0.6-0.2,1.2-0.6,1.9l-0.2,0.3c-0.2,0.3-0.5,0.7-0.8,1.1
				c-0.1,0.2-0.3,0.4-0.5,0.5l0,0.1c0,0-0.4,0.4-0.5,0.5c-0.1,0.2-0.3,0.4-0.5,0.6l-8.2,8.6v0.2l-0.4,0.4l-0.2,0.4l-0.4,0.2
				c-0.1,0-0.1,0.1-0.2,0.1c-0.2,0.1-0.3,0.2-0.5,0.3c-0.2,0.2-0.4,0.4-0.7,0.5C448.9,178.4,448.4,178.5,447.9,178.5z"/>
			<path class="st24" d="M448.2,149.9c0.3,0.1,0.6,0.3,0.9,0.6c0.4,0.3,0.7,0.6,1,0.9c0.2,0.1,0.3,0.2,0.5,0.4
				c0.2,0.1,0.3,0.2,0.3,0.3v-0.4l7.8,7.3c0,0.2,0.2,0.3,0.3,0.4c0,0.1,0.2,0.2,0.4,0.3c0.1,0.2,0.2,0.3,0.4,0.4
				c0.1,0.1,0.2,0.2,0.3,0.4c0.4,0.4,0.7,0.7,1,1.1c0.3,0.4,0.5,0.7,0.5,0.9c0,0.3-0.1,0.6-0.4,1c-0.3,0.4-0.6,0.8-0.9,1.3
				c0,0.1-0.2,0.2-0.3,0.3c-0.1,0-0.3,0.2-0.3,0.4c-0.1,0.1-0.2,0.2-0.4,0.4c-0.1,0.1-0.3,0.3-0.4,0.5l-8.4,8.8
				c-0.1,0.2-0.2,0.3-0.2,0.4c0,0-0.1,0.1-0.1,0.2c-0.1,0-0.2,0.2-0.4,0.3c-0.1,0.1-0.3,0.2-0.5,0.3c-0.2,0.2-0.4,0.4-0.6,0.5
				c-0.2,0.2-0.4,0.2-0.6,0.2c-0.2,0-0.4,0-0.5-0.1c-0.2-0.1-0.4-0.2-0.5-0.4l-0.6-0.6c-0.2-0.1-0.3-0.2-0.4-0.3
				c-0.1-0.2-0.1-0.3-0.3-0.4l-1.7-1.8l-7-7.3c-0.1,0-0.2-0.1-0.3-0.2c-0.2-0.1-0.3-0.2-0.5-0.3l-0.3-0.3c-0.1-0.1-0.3-0.2-0.4-0.3
				c-0.4-0.3-0.6-0.7-1-1c-0.3-0.4-0.4-0.8-0.4-1.3l0-0.5c0-0.2,0-0.3,0.1-0.4c0,0,0.3-0.4,0.8-1c0.5-0.5,1.1-1.2,1.8-1.8
				c0.1-0.1,0.2-0.2,0.3-0.3l0.3-0.3c0.3-0.3,0.5-0.5,0.8-0.8c0.3-0.2,0.5-0.4,0.8-0.6l5.9-5.1c0,0,0.1,0,0.2-0.1
				c0,0,0.1-0.1,0.1-0.1c0.2-0.1,0.3-0.3,0.5-0.3c0-0.1,0.1-0.2,0.1-0.2c0.1,0,0.2-0.1,0.2-0.2c0.4-0.3,0.7-0.6,1.1-0.8
				c0.4-0.3,0.7-0.4,1-0.4H448.2 M447.9,144.7v2.2c-0.9,0.1-1.7,0.5-2.4,0.9l-0.1,0.1l-0.1,0.1c-0.2,0.2-0.4,0.3-0.6,0.5
				c-0.2,0.1-0.3,0.3-0.5,0.4l-1.2,0.9v0.2l0,0l-5.8,5c-0.3,0.2-0.6,0.4-0.9,0.7l-0.1,0.1l-0.1,0.1c-0.1,0.1-0.2,0.3-0.4,0.4
				c-0.1,0.1-0.3,0.3-0.4,0.4l-0.2,0.2l-0.1,0.1l0,0.1c0,0-0.1,0.1-0.1,0.1c-0.6,0.5-1.1,1-1.5,1.4c-0.1,0.1-0.3,0.3-0.4,0.4
				c-0.7,0.7-1.2,1.3-1.5,2c-0.1,0.3-0.3,0.8-0.3,1.4v0l0,0l0,0.4c0,1.1,0.3,2.1,0.9,2.9l0.1,0.1l0.1,0.1c0.1,0.1,0.1,0.2,0.2,0.3
				c0.3,0.3,0.6,0.7,1,1.1l0.2,0.1l0.2,0.1c0,0,0,0,0,0l0.1,0.1l0.2,0.2l0.3,0.2l0.1,0.1c0.1,0.1,0.3,0.2,0.4,0.3l6.6,6.9l1.6,1.7
				c0,0,0,0,0,0.1l0.2,0.2l0.2,0.2c0.1,0.1,0.3,0.3,0.5,0.5l0.4,0.4l0,0l0,0c0.3,0.2,0.7,0.7,1.4,0.9c0.5,0.3,1.1,0.4,1.7,0.4
				c0.8,0,1.5-0.2,2.2-0.7c0.3-0.2,0.6-0.4,0.8-0.6c0.2-0.1,0.3-0.2,0.5-0.3c0,0,0,0,0,0l0.8-0.3l0.3-0.7c0,0,0,0,0,0
				c0.1-0.1,0.2-0.2,0.2-0.3l8.1-8.5c0.2-0.2,0.4-0.4,0.6-0.6c0.1-0.1,0.1-0.1,0.2-0.2l0.5-0.5l0,0c0.1-0.1,0.3-0.3,0.4-0.5
				c0.3-0.4,0.6-0.8,0.8-1.1l0.1-0.2l0.1-0.1l0-0.1c0.6-0.9,0.9-1.8,0.9-2.6v-0.1l0-0.1c0-1-0.4-1.9-1.2-2.8l-0.1-0.2
				c-0.2-0.3-0.5-0.5-0.7-0.8c-0.2-0.3-0.4-0.5-0.5-0.6l-0.1-0.1l-0.4-0.8l-0.5-0.1l-0.3-0.2l-7.8-7.3L447.9,144.7L447.9,144.7z"/>
		</g>
		<g>
			<g>
				<path class="st27" d="M586.4,309.1l-0.2-11l-0.1-3.8l-0.1-4.2l-0.3-19.5l-0.4-20.9l-0.9-51.5l-20.8,0.2l10-6h0l4.2-2.6
					c0,0,0.5-0.2,0.7-0.3c0,0,0.1-0.1,0.2-0.1l0.1-0.1l0.1-0.1c0.2-0.1,0.5-0.3,0.7-0.4c0.3-0.2,0.7-0.4,1.2-0.5
					c0.5-0.2,0.9-0.3,1.4-0.3l1,0c0.1,0,0.3,0,0.6,0h0.7l1.1,0l19.8,0.3l0.7,38.9l1,61.7l0.1,8.4l5.1,0.4l7,0.5
					c1.6,0.1,3.1,0.2,4.4,0.2c0.8,0,1.7,0,2.4,0c0.5,0,0.9,0,1.4,0c0.6,0,1.2,0,1.7,0c0.7,0,1.5,0,2.2-0.1c1.6-0.1,3-0.2,4.5-0.3
					c2-0.1,3.7-0.4,4.8-0.7c1.2-0.3,2.3-0.7,3.3-1.1c0.6-0.3,1.2-0.5,1.8-0.8c0.6-0.3,1.2-0.6,2-0.9l0.9-0.4l3.4,2.2l-1.6,1.3
					c-0.7,0.6-1.8,1.3-3.2,2.2c-1.4,0.9-2.9,1.8-4.6,2.7c-1,0.5-2.1,1-3.2,1.6c-1.1,0.5-2.3,1-3.5,1.5c-1.9,0.8-3.8,1.4-5.7,1.9
					c-1.8,0.4-3.6,0.8-5.3,1c-2.5,0.4-5,0.6-7.5,0.6l-8.1,0.1L586.4,309.1z"/>
				<path class="st24" d="M584.5,189.7l1,0l18.4,0.2l0.7,37.4l0.1,9l0.8,52.7l0.2,9.8l6.5,0.5l7,0.5c1.7,0.1,3.2,0.2,4.5,0.2
					c0.8,0,1.7,0,2.5,0c0.5,0,0.9,0,1.4,0c0.6,0,1.1,0,1.7,0c0.8,0,1.6,0,2.3-0.1c1.4-0.1,2.9-0.2,4.6-0.3c2.1-0.2,3.8-0.4,5-0.7
					s2.4-0.7,3.5-1.1c0.6-0.3,1.2-0.6,1.9-0.9c0.6-0.3,1.3-0.6,2.1-0.9l0.9,0.6c-0.7,0.6-1.7,1.3-3,2.1c-1.3,0.8-2.8,1.7-4.5,2.6
					c-1,0.5-2,1-3.1,1.5c-1.1,0.5-2.2,1-3.4,1.4c-1.9,0.8-3.8,1.4-5.5,1.8c-1.7,0.4-3.4,0.8-5.1,1c-2.4,0.4-4.8,0.6-7.3,0.6
					c-2.5,0-5.2,0-8.1,0.1l-2.8,0l-18.9-0.2l-0.2-9.5l-0.1-3.8l-0.1-4.2l-0.3-19.5v0l-0.4-20.9l-1-53l-13,0.1l-3.8,0l4.9-2.9h0
					l4.3-2.6l0.2-0.1c0.2-0.1,0.4-0.1,0.5-0.2c0.2-0.1,0.3-0.2,0.5-0.3c0.3-0.1,0.5-0.3,0.7-0.4c0.2-0.1,0.5-0.3,0.9-0.3
					c0.3-0.1,0.7-0.2,1-0.2h1c0.2,0,0.4,0,0.6,0H584.5 M584.5,186.7L584.5,186.7h-0.7c-0.2,0-0.5,0-0.7,0h-0.9h0l0,0
					c-0.6,0-1.2,0.1-1.8,0.3c-0.6,0.1-1.1,0.4-1.6,0.7c-0.2,0.1-0.4,0.2-0.6,0.3l-0.2,0.1l-0.1,0.1c-0.2,0.1-0.3,0.1-0.4,0.2
					l-0.2,0.1l-0.2,0.1l-0.2,0.1l-3.6,2.2l-0.6,0.4l-4.9,2.9l-9.4,5.7l11-0.1l3.8,0l10-0.1l0.9,50l0.4,20.9l0,0l0.3,19.5l0.1,4.2
					l0.1,3.7l0.2,9.5l0.1,2.9l2.9,0l18.9,0.2l2.8,0l0,0l0,0c2.9,0,5.6,0,8.1-0.1c2.6,0,5.1-0.2,7.7-0.6c1.7-0.2,3.5-0.6,5.4-1
					c1.9-0.5,3.9-1.1,5.9-1.9c1.3-0.5,2.5-1,3.6-1.5c0.9-0.4,2.1-1,3.2-1.6l0,0l0,0c1.7-0.9,3.3-1.8,4.7-2.7
					c1.4-0.9,2.5-1.6,3.3-2.3l3.3-2.6l-3.5-2.3l-0.9-0.6l-1.4-0.9l-1.5,0.6l-0.1,0c-0.8,0.3-1.5,0.6-2.1,0.9
					c-0.6,0.3-1.2,0.5-1.8,0.8c-0.9,0.4-1.9,0.7-3,1c-1.1,0.3-2.6,0.5-4.5,0.6l0,0l0,0c-1.5,0.1-2.9,0.3-4.5,0.3
					c-0.7,0-1.4,0.1-2.2,0.1c-0.5,0-1.1,0-1.6,0l-0.1,0l-0.1,0c-0.4,0-0.9,0-1.4,0c-0.8,0-1.6,0-2.4,0c-1.3,0-2.8-0.1-4.4-0.2
					l-7-0.5l-3.7-0.3l-0.1-7.1l-0.8-52.7l-0.1-9l-0.7-37.5l-0.1-2.9l-2.9,0l-18.4-0.2L584.5,186.7L584.5,186.7L584.5,186.7z"/>
			</g>
			<g>
				<path class="st27" d="M395.7,307.2c1-0.9,2-1.8,2.8-2.5c1.1-1.1,2.1-2.1,3-3.2l2.3-2.6c0.3-0.4,0.6-0.7,0.9-1.1
					c0.3-0.3,0.5-0.6,0.8-0.9c0.9-1.2,1.8-2.3,2.7-3.5c0.7-0.9,1.4-1.9,2.1-2.8c-0.1,0-2.1,0-2.1,0l-0.1,0c-1.4-0.1-2.9-0.3-4.2-0.7
					c-2.4-0.6-4.7-1.6-6.9-2.9c-3.4-2.1-6.7-4.7-10-7.8c-1.4-1.2-2.8-2.7-4.6-4.5c-1.5-1.5-3.1-3.1-4.7-4.7l-0.1-0.1
					c-0.1-0.1-0.2-0.2-0.3-0.3c-0.2-0.1-0.3-0.3-0.5-0.5l-8.9-8.7l-0.4-0.4l-21.2-20.7c-0.2-0.1-0.4-0.3-0.6-0.5
					c-0.2-0.1-0.4-0.3-0.6-0.3l-0.3-0.1l-0.2-0.3c0,0,0,0-0.1-0.1l-0.1-0.1l0,0l-0.2-0.1l-0.1-0.1l0,0.6l0.3,18.1l0.5,27.6l-6.7,3.1
					l-10.9,5l-3,1.4l-0.1-3.4l-0.7-22.4l-0.6-20.3l-0.3-11.6l-1-35.6l-28.1,0.5l16.9-10.7l0.3,0c0,0,0.1-0.1,0.1-0.1l0.1-0.1
					l0.4-0.2c0.6-0.3,1.1-0.5,1.5-0.7c0.6-0.2,1.2-0.4,1.9-0.5l0.2,0c0.2,0,0.5-0.1,0.8-0.1l3.1,0l24.2,0.1l0.2,38.2
					c0.1,0,1.1-0.5,1.1-0.5c0.6-0.3,1.2-0.6,1.8-0.9l0.8-0.4c0.2-0.1,0.4-0.2,0.5-0.2c0,0,0.1,0,0.1-0.1c0.2-0.1,0.2-0.1,0.3-0.2
					l0.2-0.2l0.2-0.1c1.3-0.6,2.8-1.6,4.3-2.8c1.8-1.3,4.3-3.5,6.7-5.7c0.2-0.2,1.2-1.2,1.5-1.4c0.7-0.7,1.3-1.2,1.8-1.8
					c1.1-1.1,2.1-2.2,3-3.2l0.4-0.5c0.4-0.5,0.9-1.1,1.4-1.6c0.6-0.6,1.1-1.3,1.6-1.9l0.7-0.7c1.9-2.1,3.8-4.2,5.8-6.3l0.1-0.1
					c2.4-2.4,5.1-4.6,8-6.5c1.8-1.3,4.2-2.4,6.9-3.2c2.5-0.8,5.3-1.5,8.1-2l0.5-0.1c0.8-0.1,1.5-0.3,2.4-0.4
					c0.9-0.1,1.7-0.2,2.5-0.3l4.8-0.7l-3.6,3.3c-1.4,1.3-2.7,2.5-3.8,3.6c-0.4,0.4-0.7,0.7-1,1c-0.6,0.6-1.2,1.2-1.9,1.8l-0.5,0.5
					c-0.2,0.3-0.5,0.5-0.7,0.7c-0.1,0.1-0.2,0.1-0.2,0.2c-0.1,0.1-0.1,0.1-0.2,0.2c-1,1-2,1.9-3.1,2.8l-0.5,0.4
					c-0.2,0.2-0.4,0.4-0.7,0.6l-0.6,0.6c-0.9,0.8-1.9,1.6-2.9,2.5c-2.4,2-4.5,3.8-6.5,5.4c-2.1,1.7-4.1,3.3-6,4.8l-0.1,0.1
					c-0.6,0.4-1.1,0.9-1.7,1.3c-0.6,0.6-1.4,1.1-2.1,1.5c-1.6,1.3-3.2,2.4-4.9,3.7l-0.9,0.7c-1,0.7-2,1.4-3,2.1
					c-0.7,0.5-1.5,1-2.3,1.5l36.3,35.3c1,1,2.2,2.2,3.7,3.5c1,0.9,1.9,1.7,2.9,2.5c0.6,0.5,1.2,1,1.8,1.4l3.8,3
					c1.2,1,2.5,1.8,3.8,2.5c1.9,1.2,3.8,2.1,5.5,2.9c0,0,0.4,0.2,0.6,0.2c0.3-0.5,2.1-3.8,2.1-3.8l8.4-15.2l-12.3,0.1l17.3-8.6
					l3.9-7l0.2-0.3l21.3-38.5c-0.1,0-0.6,0-0.6,0c-0.6,0-1-0.1-1.5-0.1c-0.5,0-1-0.1-1.6-0.1l-5.6,0c-1.2,0-2.2,0.1-3.1,0.1l-0.2,0
					l-0.3,0c-0.9,0.1-1.8,0.2-2.6,0.2c-0.7,0-1.3,0.1-2,0.1l-0.2,0l-0.4,0.1c-0.9,0.2-1.9,0.3-3,0.4l-4.2,0.5l2.9-3
					c0.2-0.3,0.5-0.5,0.7-0.7c0.2-0.2,0.4-0.4,0.5-0.6l0,0l0,0c0.3-0.3,0.6-0.6,0.9-0.9l0.1-0.1l0.1-0.1c0.3-0.3,0.5-0.5,0.8-0.7
					c0.2-0.2,0.4-0.4,0.6-0.6c0.4-0.4,0.9-0.7,1.4-1.1l0.2-0.1c0.3-0.2,0.5-0.4,0.8-0.6c0.2-0.1,0.4-0.2,0.6-0.4
					c0.5-0.3,1.1-0.7,1.8-1.1c0.9-0.5,1.7-1,2.3-1.4l0.5-0.3c0.6-0.3,1.1-0.7,1.7-1c1.2-0.6,2.6-1.1,4.4-1.5
					c1.5-0.3,3.6-0.4,6.6-0.5l18.9,0l4.3,8.3l5.5,10.6l29.7,68.9l10.7-0.1c1.5,0,3-0.2,4.5-0.4l-0.4-25.7l-0.9-51.4l-13.4,0.1
					l-7.1,0.1l4.5-2.9l9.5-5.7l0.2-0.1c0.2-0.1,0.3-0.1,0.4-0.2c0,0,0.3-0.2,0.3-0.2l0.2-0.1c0.1,0,0.2-0.1,0.4-0.2l0.2-0.1l0.2-0.1
					c0.2-0.1,0.3-0.1,0.4-0.1l0.1,0c0.2-0.1,0.4-0.1,0.6-0.2l0.2-0.1c0.4-0.1,0.8-0.2,1.2-0.2l2.3,0l20.9,0.3l0.2,8.5l0.6,30.4
					l0.6,41.9c0,0,0.4-0.2,0.5-0.2c0.5-0.2,1.5-0.9,2.4-1.5c1.1-0.7,2-1.4,2.8-1.7l2.1-0.9v2.3c0,1.1-0.7,2.1-5.1,5.5l-0.3,0.2
					l-0.2,0.2c-0.7,0.6-1.4,1.2-2.1,1.8l0.2,16.8l4.5,0.3l7.6,0.6c1.3,0.1,2.9,0.2,4.2,0.2l0.2,0c0.5,0,1.1,0,1.6,0
					c0.4,0,0.8,0,1.2,0s0.7,0,1.1,0c0.6,0,1.1,0,1.7,0c0.8,0,1.6,0,2.4-0.1c1.3-0.1,2.8-0.2,4.5-0.3c0.7,0,1.3-0.1,1.9-0.2
					c1.1-0.1,2.1-0.3,3-0.5c1.1-0.3,2.2-0.6,3.2-1c0.5-0.3,1.1-0.5,1.6-0.7l0.2-0.1c0.6-0.3,1.3-0.6,2.1-0.9l0.8-0.4l3.5,2.3l-2,1.4
					c-0.7,0.5-1.7,1.2-3,2c-1.3,0.9-2.8,1.8-4.5,2.7c-0.3,0.2-0.6,0.3-0.9,0.5c-0.7,0.4-1.4,0.7-2.3,1.1c-0.3,0.1-0.6,0.3-0.8,0.4
					c-0.7,0.3-1.5,0.7-2.6,1.1c-2,0.8-3.8,1.4-5.7,1.9c-2,0.4-3.7,0.7-5.2,1c-1.2,0.2-2.4,0.3-3.6,0.4c-1.2,0.1-2.6,0.2-3.9,0.2
					l-8.1,0.1l-23.2-0.3l-0.3-15.6c-4.2,1.6-8.7,2.3-14.3,2.4c-0.3,0-0.5,0-0.8,0c-1.3,0-2.5,0-3.9-0.1c-0.6,0-1.1-0.1-1.6-0.1
					c-0.9,0-1.7-0.1-2.4-0.1c-0.5,0-0.9-0.1-1.4-0.1c-0.5,0-0.9-0.1-1.2-0.1l-0.1,0c-0.5-0.1-0.9-0.1-1-0.1l-0.8-0.1l-0.4-0.8
					l-17.6-33.5l-46.9-0.3l-2.7,4.6l0,0l-8.9,15.1c0.3-0.1,0.6-0.2,1-0.2l0.4-0.1c1.3-0.4,2.4-0.8,3.4-1.1c0.6-0.2,1.2-0.4,1.7-0.5
					c0.4-0.1,0.9-0.2,1.3-0.2c0.3,0,0.7,0,0.9,0.1c0.7,0.1,1,0.7,1.2,0.9l0.2,0.2l0.1,0.3c0.6,1.9-1.8,3.1-2.8,3.6
					c-0.2,0.1-0.4,0.2-0.7,0.3l-0.1,0c-1.9,0.9-4.1,2-6.5,3.3l-0.1,0l-0.1,0c-1,0.4-1.7,0.8-2.4,1.1c-0.3,0.2-0.6,0.4-0.9,0.5
					c-0.4,0.3-0.9,0.5-1.3,0.8l-1.5,1c-1.1,1.5-2.3,3-3.7,4.7c-1.6,1.9-3.3,3.7-5.1,5.4c-1,1.1-2.2,2.2-3.4,3.4
					c-1.1,1-2.1,2-3.2,2.9c-1.4,1.1-2.7,2.1-3.9,3.1l0,0l0,0c0,0-0.2,0.1-0.2,0.1l-0.3,0.2h0c-1.3,0.9-2.6,1.8-4.1,2.6
					c-0.7,0.4-1.4,0.8-2.2,1.3c-0.7,0.4-1.4,0.8-2.2,1.2l-11.6,6.3L395.7,307.2z M449.7,244.7l35.1-0.1l-16.3-31.4L449.7,244.7z"/>
				<path class="st24" d="M403.8,187c-1.4,1.3-2.7,2.5-3.8,3.6c-0.3,0.3-0.7,0.7-1,1c-0.8,0.8-1.7,1.6-2.5,2.3
					c-0.2,0.2-0.4,0.4-0.5,0.5c-0.2,0.2-0.4,0.3-0.6,0.5c-1.1,1.1-2.4,2.2-3.6,3.3c-0.2,0.2-0.5,0.4-0.7,0.6
					c-1.1,0.9-2.2,1.9-3.5,2.9c-2.3,1.9-4.5,3.8-6.4,5.4c-2,1.6-4,3.2-6,4.8c-0.6,0.5-1.3,1-1.8,1.4c-0.6,0.5-1.3,1-2,1.4
					c-1.9,1.5-3.9,2.9-5.9,4.4c-0.9,0.7-1.9,1.3-3,2.1c-1.2,0.8-2.5,1.7-3.8,2.6l4.9,4.8l32.7,31.8c1,1.1,2.3,2.3,3.8,3.6
					c0.9,0.8,1.9,1.7,2.9,2.5c0.6,0.5,1.2,1,1.9,1.5l3.8,2.9c1.3,1,2.6,1.9,3.9,2.6c1.8,1.2,3.7,2.1,5.6,2.9
					c0.6,0.3,1.3,0.5,1.9,0.7c0.8-1.4,1.7-3.1,2.7-4.9l9.7-17.4l-8.3,0.1l11.8-5.9l4.3-7.7v0l22.5-40.7c-0.1,0-0.2,0-0.4,0
					c-0.9,0-1.7,0-2.5,0c-0.1,0-0.2,0-0.3,0c-1-0.1-1.9-0.1-2.9-0.2l-5.7,0c-1.3,0-2.4,0.1-3.4,0.1c-1.1,0.1-2,0.2-3,0.3
					c-0.7,0-1.5,0.1-2.2,0.2h0c-0.2,0-0.3,0-0.5,0.1c-0.9,0.2-1.9,0.3-3,0.4c0.5-0.5,0.8-0.9,1.2-1.3c0.4-0.3,0.7-0.7,1-1.1
					c0.3-0.3,0.6-0.6,0.9-0.8c0.2-0.2,0.4-0.3,0.5-0.5c0.5-0.4,1-0.8,1.5-1.2c0.4-0.3,0.9-0.6,1.4-0.9c0.5-0.3,1-0.7,1.7-1.1
					c0.9-0.5,1.7-1,2.4-1.4c0.7-0.4,1.4-0.8,2.1-1.2c1.2-0.6,2.6-1.1,4-1.4c1.4-0.3,3.5-0.4,6.2-0.4l18,0l3.4,6.5l0.5,1l5.5,10.5
					l22.4,51.9l7.7,17.9l11.7-0.1c2,0,4-0.2,6-0.7l-0.4-27l-0.9-52.3l0-0.6l-7.1,0.1l-7.8,0.1l-1.9,0l0.1-0.1l9.3-5.6
					c0.2-0.1,0.4-0.2,0.5-0.2c0.2-0.1,0.4-0.2,0.6-0.3c0.3-0.1,0.5-0.3,0.7-0.4c0.1,0,0.2-0.1,0.3-0.1h0c0.2-0.1,0.3-0.1,0.5-0.2
					c0.4-0.1,0.7-0.2,1-0.2l2.3,0l19.4,0.3l0.1,7l0.6,30.4l0.2,17.1v0l0.4,26.8c0.4-0.1,0.9-0.2,1.3-0.4c0.2,0,1-0.4,1.2-0.5
					c1.3-0.5,4-2.7,5.2-3.2c0,0.9-4.2,4-4.8,4.5c-0.9,0.7-2,1.6-2.9,2.4l0.3,18.9l5.8,0.5h0l7.6,0.6c1.6,0.1,3.1,0.2,4.4,0.2
					c0.1,0,0.1,0,0.2,0c0.5,0,1,0,1.5,0h0c0.4,0,0.8,0,1.2,0s0.8,0,1.1,0c0.5,0,1.1,0,1.6,0c0.8,0,1.6,0,2.4-0.1
					c1.4-0.1,2.9-0.2,4.6-0.3c0.7,0,1.3-0.1,1.9-0.2c1.3-0.1,2.3-0.3,3.2-0.6c1.3-0.3,2.4-0.7,3.5-1.1c0.6-0.3,1.3-0.6,1.8-0.9
					c0.6-0.3,1.4-0.6,2.1-1l1,0.6c-0.7,0.5-1.7,1.3-3.1,2.1c-1.3,0.9-2.8,1.8-4.5,2.7c-1,0.5-2,1-3.1,1.5c-0.3,0.1-0.5,0.3-0.8,0.4
					c-0.8,0.4-1.7,0.8-2.6,1.1c-2,0.8-3.8,1.4-5.5,1.8c-1.7,0.4-3.4,0.7-5.1,0.9c-1.2,0.2-2.3,0.3-3.5,0.4c-1.3,0.1-2.5,0.2-3.8,0.2
					l-8.1,0.1l-11.4-0.1l-10.3-0.1l-0.2-11.7v0l-0.1-4.7c-0.5,0.3-1,0.5-1.6,0.7c-4.7,1.8-9.3,2.4-14.2,2.4c-0.3,0-0.5,0-0.8,0
					c-1.3,0-2.5,0-3.8-0.1c-1.5-0.1-2.8-0.1-4-0.2c-1-0.1-1.9-0.2-2.6-0.2c-0.7-0.1-1.1-0.1-1.2-0.1l-3.3-6.4l-14.7-28l-16.7-0.1
					l-31.9-0.2l-3.1,5.2l0,0l-10.8,18.3c0.7-0.1,1.5-0.2,2.3-0.5c0.8-0.2,1.5-0.4,2.2-0.6c1.5-0.5,2.7-0.9,3.9-1.2
					c0.6-0.2,1.2-0.4,1.7-0.5c0.4-0.1,0.7-0.1,1-0.1c0.3,0,0.5,0.1,0.6,0.1c0.2,0,0.3,0.2,0.4,0.3c0.1,0.5-0.5,1.1-2,1.8
					c-0.2,0.1-0.5,0.2-0.7,0.3c-2,0.9-4.2,2-6.6,3.3c-0.9,0.4-1.7,0.8-2.6,1.2c-0.8,0.5-1.6,0.9-2.3,1.4l-1.7,1.1
					c-1.2,1.7-2.5,3.3-3.8,4.9c-1.5,1.8-3.2,3.5-5,5.3c-1.1,1.2-2.3,2.3-3.4,3.3c-1.1,1-2.1,1.9-3.2,2.9c-1.4,1.1-2.6,2.1-4,3.1
					c0,0,0,0,0,0c-1.3,0.9-2.8,1.9-4.3,2.8c-0.7,0.4-1.5,0.8-2.3,1.3c-0.7,0.4-1.4,0.7-2.1,1.2c1.2-1.1,2.3-2,3.2-2.9
					c1-1.1,2-2.1,3-3.2c0.7-0.7,1.4-1.5,2.1-2.3c0.1-0.1,0.2-0.2,0.2-0.3c0.6-0.7,1.2-1.4,1.7-2c1-1.2,1.9-2.4,2.8-3.7
					c0.9-1.2,1.9-2.6,3-4.1c0.4-0.5,0.8-1,1.1-1.5c-1.1,0.3-2.3,0.3-3.6,0.3l-1.8,0c-1.3-0.1-2.6-0.3-3.9-0.6
					c-2.2-0.6-4.4-1.5-6.5-2.8c-3.3-2.1-6.5-4.6-9.7-7.6c-1.5-1.4-3.1-2.9-4.6-4.5c-1.5-1.6-3.1-3.1-4.8-4.7
					c-0.1-0.1-0.2-0.2-0.3-0.4c-0.2-0.1-0.3-0.3-0.5-0.5l-9.4-9.2h0L347,238c-0.1,0-0.3-0.1-0.5-0.4c-0.3-0.2-0.6-0.4-0.9-0.6
					c-0.2-0.2-0.3-0.3-0.5-0.4c-0.1-0.1-0.3-0.2-0.5-0.3c-0.3-0.1-0.5-0.3-0.7-0.4c-0.2,0-0.4-0.1-0.6-0.1c-0.2,0-0.3,0.1-0.5,0.1
					c-0.1,0.1-0.2,0.3-0.3,0.4c-0.1,0.1-0.2,0.2-0.1,0.4l0,1.5l0.3,18.1l0.5,26.6l-5.8,2.6l-10.9,5l-1,0.5l0-1.2l-0.7-22.4
					l-0.6-20.3l-0.3-11.6v0l-1-36.3l0-0.8l-8.9,0.2l-15.3,0.3l12-7.6c0.2,0,0.4-0.1,0.5-0.2c0.2-0.1,0.3-0.1,0.4-0.3
					c0.1,0,0.1-0.1,0.2-0.1c0.5-0.2,0.9-0.5,1.3-0.6c0.5-0.2,1-0.3,1.7-0.4c0.3,0,0.5-0.1,0.8-0.1l3.2,0l22.7,0.1l0.1,9.4l0.2,29.7
					c1.3-0.5,2.3-1.1,3.2-1.5c0.9-0.5,1.8-0.9,2.7-1.4c0.2-0.1,0.4-0.2,0.6-0.3c0.2-0.1,0.4-0.2,0.6-0.4c1.4-0.7,3-1.7,4.6-2.9
					c1.7-1.2,3.9-3.2,6.8-5.8c0.5-0.5,1-1,1.5-1.5c0.6-0.6,1.2-1.2,1.8-1.8c1.1-1.1,2.1-2.2,3.1-3.3c0.6-0.7,1.1-1.4,1.8-2.1
					c0.6-0.7,1.2-1.4,1.7-2c2.1-2.3,4.1-4.7,6.3-6.9c0-0.1,0.1-0.1,0.1-0.1c2.1-2.2,4.7-4.3,7.7-6.2c1.8-1.2,4-2.2,6.6-3
					c2.6-0.8,5.2-1.5,7.9-1.9l0.1,0c0.8-0.1,1.7-0.3,2.6-0.4C402.2,187.2,403,187.1,403.8,187 M447.1,246.2l28.4-0.1l11.8-0.1
					l-9-17.4l-9.6-18.6L447.1,246.2 M413.1,182.6l-9.7,1.4c-0.8,0.1-1.5,0.2-2.3,0.3l-0.1,0l-0.1,0c-0.9,0.1-1.7,0.2-2.4,0.4
					l-0.3,0.1l0,0l0,0l-0.1,0c-2.8,0.5-5.6,1.2-8.2,2c-2.9,0.9-5.3,2-7.3,3.4c-3,1.9-5.7,4.1-8.2,6.6l-0.1,0.1l0,0l0,0
					c-2,2.1-3.9,4.2-5.8,6.3l-0.6,0.7l0,0l0,0c-0.5,0.6-1,1.2-1.6,1.9c-0.5,0.6-1,1.2-1.5,1.7c-0.1,0.2-0.3,0.3-0.4,0.5
					c-0.9,1-1.8,2.1-2.9,3l-0.1,0.1l-0.1,0.1c-0.5,0.5-1,1-1.7,1.7c-0.3,0.3-0.5,0.5-0.8,0.7c-0.2,0.2-0.5,0.5-0.8,0.7
					c-2.4,2.1-4.8,4.3-6.5,5.5l0,0l0,0c-1.5,1.1-2.9,2-4.1,2.6l-0.4,0.2l-0.2,0.2l0,0c-0.2,0.1-0.4,0.2-0.7,0.3l-0.7,0.4
					c-0.2,0.1-0.5,0.2-0.7,0.4l-0.1-24.9l0-9.4l0-3l-3,0l-22.7-0.1l-3.2,0c-0.4,0-0.8,0.1-1.1,0.1l-0.2,0c-0.9,0.1-1.5,0.4-2.1,0.5
					c-0.5,0.2-1.1,0.4-1.8,0.8c-0.1,0-0.1,0.1-0.2,0.1l-0.3,0.1l-0.2,0l-0.6,0.4l-12.1,7.6l-9.1,5.7l10.8-0.2l15.3-0.3l6-0.1l0.9,34
					v0l0,0.1l0.3,11.6l0.6,20.3l0.7,22.4l0,1.2l0.2,4.5l4.1-1.9l1-0.5l10.9-5l5.8-2.6l1.8-0.8l0-2l-0.5-26.6l-0.3-15.8l21,20.5
					l0.9,0.9h0l8.5,8.3c0.2,0.2,0.4,0.4,0.5,0.6c0.1,0.1,0.2,0.2,0.2,0.2l0.1,0.1l0.1,0.1l0.1,0.1c1.6,1.6,3.2,3.1,4.6,4.6
					c1.8,1.8,3.3,3.3,4.7,4.6c3.3,3.1,6.7,5.8,10.2,8c2.4,1.4,4.8,2.5,7.4,3.1c1.2,0.3,2.5,0.5,3.8,0.6c-0.1,0.1-0.2,0.3-0.3,0.4
					l0,0.1l0,0.1c-0.8,1.2-1.7,2.3-2.6,3.5c-0.3,0.3-0.5,0.6-0.8,0.9c-0.3,0.3-0.6,0.7-0.9,1l-0.1,0.1l0,0.1l0,0l-0.1,0.1l-1,1.1
					l-1,1.1l0,0l0,0c-0.9,1-1.8,2-2.9,3.1c-0.7,0.7-1.6,1.5-2.7,2.5l-0.3,0.3L374.5,324l23.3-12.7l0,0c0.8-0.4,1.4-0.8,2.1-1.2
					l0.1,0l0.1,0c0.7-0.4,1.4-0.8,2-1.2l0.1,0l0.1,0c1.3-0.8,2.6-1.6,3.8-2.4h0.1l0.7-0.5c0,0,0,0,0.1-0.1l0.2-0.1l0,0
					c1.3-1,2.5-2,3.9-3.1l0.1-0.1l0.1-0.1c1-1,2.1-1.9,3.2-2.9c1.3-1.2,2.4-2.3,3.5-3.4c1.8-1.8,3.5-3.6,5.1-5.5l0,0l0,0
					c1.4-1.6,2.5-3.1,3.6-4.6l1.3-0.8c0.4-0.3,0.8-0.5,1.3-0.8c0.3-0.2,0.6-0.4,0.9-0.6c0.6-0.3,1.3-0.6,2.2-1l0.1-0.1l0.1-0.1
					c2.4-1.3,4.6-2.4,6.5-3.2l0.1,0c0.3-0.1,0.5-0.2,0.7-0.4c3-1.5,4.2-3.3,3.6-5.4l-0.1-0.5l-0.3-0.4c-0.6-0.9-1.4-1.3-2-1.4
					c-0.4-0.1-0.9-0.2-1.4-0.2c-0.5,0-1.1,0.1-1.5,0.2l-0.1,0l-0.1,0c-0.6,0.1-1.2,0.3-1.9,0.5c-0.4,0.1-0.7,0.2-1.1,0.3l6.8-11.6
					l0,0l0.2-0.3l2.2-3.7l30.2,0.2l14.9,0.1l13.8,26.4l3.3,6.4l0.8,1.6h1.7c0.1,0,0.4,0,0.9,0.1l0.1,0l0.1,0c0.3,0,0.7,0.1,1.2,0.1
					c0.4,0,0.9,0.1,1.4,0.1c0.8,0.1,1.6,0.1,2.4,0.1c0.5,0,1.1,0.1,1.6,0.1c1.3,0.1,2.6,0.1,3.9,0.1c0.3,0,0.5,0,0.8,0
					c5,0,9-0.6,12.8-1.8l0,0.3v0l0,0l0.2,11.7l0.1,2.9l2.9,0l10.3,0.1l11.4,0.1l0,0l0,0l8.1-0.1c1.4,0,2.7-0.1,4-0.2
					c1.3-0.1,2.5-0.3,3.8-0.4c1.6-0.2,3.3-0.5,5.3-1l0,0l0,0c1.9-0.5,3.9-1.1,5.9-1.9c1-0.4,1.9-0.8,2.7-1.1
					c0.3-0.1,0.5-0.2,0.8-0.4c0.9-0.4,1.6-0.8,2.3-1.1c0.3-0.1,0.6-0.3,0.9-0.4l0.1,0l0.1,0c1.7-0.9,3.3-1.8,4.6-2.7
					c1.3-0.8,2.3-1.5,3.1-2l0.2-0.1l3.5-2.6l-3.6-2.4l-1-0.6l-1.4-0.9l-1.5,0.7c-0.8,0.4-1.5,0.7-2.1,0.9l-0.3,0.1
					c-0.5,0.2-1,0.5-1.6,0.7c-0.9,0.4-1.9,0.6-3,0.9c-0.8,0.2-1.7,0.4-2.7,0.5c-0.5,0.1-1.1,0.1-1.7,0.1l-0.1,0l-0.1,0
					c-1.7,0.2-3.1,0.3-4.4,0.3c-0.8,0-1.5,0.1-2.3,0.1c-0.5,0-1,0-1.5,0l-0.1,0l-0.1,0c-0.4,0-0.7,0-1.1,0c-0.4,0-0.7,0-1.1,0
					c-0.5,0-1,0-1.5,0l0,0l0,0l-0.2,0c-1.3,0-2.8-0.1-4.1-0.2l-7.6-0.6l-0.1,0h0l-3-0.2L558,276c0.5-0.4,1.1-0.9,1.6-1.3l0.2-0.1
					l0.3-0.2c4.5-3.5,5.7-4.9,5.7-6.7v-4.6l-4.2,1.8c-0.8,0.4-1.8,1-3,1.8c-0.2,0.1-0.4,0.3-0.6,0.4l-0.3-22.3l-0.2-17.1l-0.6-30.5
					l-0.1-7l-0.1-2.9l-2.9,0l-19.4-0.3l0,0l0,0l-2.3,0c-0.7,0-1.2,0.2-1.6,0.3l-0.2,0c-0.3,0.1-0.5,0.2-0.7,0.2l0,0
					c-0.1,0-0.3,0.1-0.4,0.2l-0.4,0.2l-0.4,0.3c0,0-0.1,0.1-0.1,0.1l-0.3,0.1l-0.2,0.2c-0.1,0-0.2,0.1-0.2,0.1l-0.3,0.1l-0.4,0.2
					l-9.3,5.6l0,0l0,0l-0.1,0.1l-8.8,5.6l10.4-0.1l1.9,0l7.8-0.1l4.1,0l0.9,50l0.4,24.4c-1,0.1-2,0.2-3,0.2l-9.7,0.1l-6.9-16.1
					L492,206.8l0-0.1l0-0.1l-5.4-10.5l-0.5-1l-3.4-6.5l-0.8-1.6l-1.8,0l-18,0c-3.1,0-5.2,0.2-6.8,0.5l-0.1,0l-0.1,0
					c-1.9,0.4-3.4,1-4.8,1.7c-0.6,0.3-1.2,0.7-1.8,1l-0.5,0.3l0,0l0,0c-0.7,0.4-1.4,0.9-2.3,1.4c-0.7,0.4-1.3,0.8-1.8,1.2
					c-0.2,0.1-0.4,0.2-0.5,0.4c-0.3,0.2-0.6,0.4-0.9,0.6l-0.1,0.1c-0.5,0.4-1,0.7-1.5,1.2c-0.2,0.2-0.4,0.4-0.7,0.6
					c-0.3,0.3-0.6,0.5-0.8,0.8l-0.1,0.1L439,197l-0.1,0.1c-0.2,0.3-0.5,0.5-0.7,0.7l-0.1,0.1l-0.1,0.1c-0.2,0.2-0.4,0.4-0.6,0.6
					c-0.2,0.2-0.4,0.4-0.6,0.7l-5.9,6l8.3-0.9c1-0.1,2.1-0.2,3.1-0.4l0.2,0l0.1,0l0,0l0.2,0c0.7-0.1,1.2-0.1,1.8-0.1l0.1,0l0.1,0
					c0.9-0.1,1.8-0.2,2.7-0.3l0.3,0l0.1,0c0.9-0.1,1.9-0.1,3-0.1l5.6,0c0.4,0,0.8,0,1.1,0.1l-20.1,36.4l-0.4,0.7v0l-3.5,6.2l-11,5.4
					l-11.7,5.8l13.1-0.1l3.2,0l-7.2,12.9l-1.1,2.1c-0.1,0.2-0.2,0.4-0.3,0.6c-1.4-0.6-3-1.4-4.5-2.4l-0.1,0l-0.1,0
					c-1.2-0.7-2.4-1.5-3.6-2.4l-3.8-3c-0.6-0.5-1.2-0.9-1.8-1.4c-0.9-0.8-1.9-1.6-2.8-2.4l0,0l0,0c-1.5-1.3-2.6-2.4-3.5-3.4
					l-0.1-0.1l-0.1-0.1l-32.7-31.8l-2.3-2.2c0.2-0.2,0.5-0.3,0.7-0.5c1-0.7,2-1.4,3-2.1l0,0l0,0l0.9-0.7c1.7-1.2,3.3-2.4,4.9-3.7
					c0.8-0.5,1.6-1,2.3-1.6c0.5-0.4,1-0.8,1.6-1.2l0.1-0.1c1.9-1.5,3.9-3.1,6.1-4.8c1.9-1.5,4-3.3,6.5-5.4c1.1-0.9,2.1-1.7,2.9-2.5
					l0.6-0.5l0.1-0.1c0.2-0.2,0.4-0.4,0.6-0.5l0.5-0.5c1.1-1,2.1-1.9,3.1-2.8c0.1-0.1,0.1-0.1,0.2-0.2c0.1-0.1,0.1-0.1,0.2-0.2
					c0.3-0.2,0.6-0.5,0.9-0.8l0.5-0.5c0.6-0.6,1.3-1.2,1.9-1.8c0.3-0.3,0.7-0.7,1-1c1.1-1.1,2.4-2.2,3.8-3.5L413.1,182.6
					L413.1,182.6z M452.4,243.2l16-26.9l7.2,13.8l6.8,13l-6.8,0L452.4,243.2L452.4,243.2z"/>
			</g>
		</g>
	</g>
	<g class="st28">
		<path class="st29" d="M460,563.5c-0.1-1.8-0.3-3.6-0.6-5.4c-0.3-1.8-0.7-3.5-1.4-5.2c-0.6-1.7-1.4-3.3-2.4-4.8
			c-1-1.5-2.2-2.8-3.8-3.8l0,0c1.7,0.8,3.1,2.1,4.2,3.5c1.1,1.5,1.8,3.2,2.4,5c0.6,1.7,1,3.5,1.2,5.3
			C459.9,559.9,460,561.7,460,563.5L460,563.5z"/>
	</g>
	<g>
		<g class="st30">
			<polygon class="st23" points="644.6,575 646.8,583.2 651.5,576.7 			"/>
			<polygon class="st23" points="634.4,572.2 636.3,580.5 640.9,574.1 			"/>
			<path class="st24" d="M615.4,566.9c4.6,3.6,9.1,7.4,13.5,11.3c3.5,3.1,7,6.2,10.3,9.5c2.4,2.4,5.1,5,6.8,8.1
				c1.6,2.8-0.7,7.1-4.1,5.4l-3.7-4.3c0,0-18.8-6.7-21.6-16.9l-12.9-3.3c0,0-0.7-13,7.1-7C611,569.8,611.3,563.6,615.4,566.9z"/>
			<path class="st24" d="M555,578.5l8.3-7.6l-3-18.3l15.5-4.8l-3.3-12.4l16.2-0.5l4.1,4.7c0,0-21.5,18-31.3,47.8l-5.6-4.1L555,578.5
				z"/>
			<path d="M653.2,561.9c-0.1-0.8,3.9-2.1,4.4-2.2c3.1-0.7,7.3-0.3,9.3,2.5c2.8,3.8-0.1,8.6-3.8,10.4
				C663.1,572.5,654.6,569.7,653.2,561.9z"/>
			<path class="st24" d="M662.7,567.7c0,0,0.8-4-2.2-3.8S662.7,567.7,662.7,567.7z"/>
			<path class="st23" d="M620.1,576.4l-6.1,2.4c0,0,3.2,0.7,3.4,1.4c0,0,0.9,2.6,1.1,2.8C618.5,583.2,620.1,576.4,620.1,576.4z"/>
			<polygon class="st23" points="620.2,585.5 627.5,581.8 625.4,590 			"/>
			<path d="M663.8,571.9c-9.5-3.7-9.9-10.6-9.9-10.6c-1.3,1.3-15.1-3.1-15.1-3.1c-2.5-1.5-1.1-3.7,0.6-5.2c1.8-1.6,2.9-2.2,2.1-4.9
				c-1.3-4.5-5.5-8-8.8-11.1c-2.2-2-4.4-4-6.8-5.8c-2-1.6-4.5-2.5-6.5-4.1c-1.8-1.4-3.5-3.2-5-4.9c-1.8-2.2-3.6-4.5-5.1-6.9
				l-3.2,12.9c-6.3-1.5-15.6-15-15.6-15c0.4,0.6-0.7,2.3-0.9,2.8c-0.4,1-0.8,2-1,3c-0.8,3.8-1.1,7.8-0.6,11.6
				c0.2,1.3,0.3,2.6,0.6,3.8c0.3,1.2,0.8,2.4,1.7,3.3c0.4,0.4,1.9,2.1,2.5,1.9c-19.4,4.4-29.5,31.3-29.5,31.3
				c-2.8,4.5-10.6,5.8-19.4,5.6c0.9,4,1.3,8,1.2,12.1c4.7,1.4,9.4,2.9,14.2,4c2.3,0.5,4.6,1,6.9,1.2c1,0.1,2,0.2,3,0.2
				c1.6,0,3.2-0.4,4.8-0.5c1.5-0.1,2.9,0,4.4,0c2.9,0.1,5.8,0.3,8.7-0.4c1.2-0.3,2.2-1.4,3.3-2c4.1-2.4,9.1-3.5,13.8-2.6
				c2.7,0.5,5.3,1.7,7.5,3.3c0.8,0.6,1.6,1.3,2.4,2c0.4,0.4,1.6,1.3,1.6,1.9c0,0.1,0,0.2,0,0.3c-0.5,2.3-0.2,4.8,0.8,7
				c1.2,2.4,3.3,3.9,5.9,4.3c1.4,0.2,3,0.4,4.5,0.3c2.5-0.2,5-1,7.4-1.9c2.5-1,4.9-2.1,7.3-3.3c0.4-0.2,0.9-0.3,1.1-0.7
				c0.1-0.5-0.4-1.2-0.7-1.6c-0.8-1.1-1.7-2-2.6-2.9c-0.8-0.8-2.1-1.1-3.2-1.5c-4.6-1.9-9.2-4.1-13-7.3c-2-1.6-3.8-3.5-5-5.8
				c-0.2-0.3-1.1-1.9-0.8-2.4c0.7-1-12.8-3.2-12.8-3.2c0-1,0-2,0.1-3.1c0.2-2.4,1.2-5.9,4.3-5.1c1,0.2,1.7,0.9,2.6,1.2
				c0.2-1.1,0.2-2.5,1.3-3.2c0.7-0.4,1.6-0.3,2.4-0.1c2.1,0.7,4.3,1.3,6.4,1.9c7.6,2.1,15.2,4.2,22.8,6.3c4.7,1.3,9.4,2.6,14.1,3.9
				C661.6,578.6,663.8,571.9,663.8,571.9z"/>
			
				<ellipse transform="matrix(0.2445 -0.9696 0.9696 0.2445 -62.7076 1017.3427)" class="st15" cx="621.5" cy="548.9" rx="8.1" ry="8.1"/>
			<ellipse transform="matrix(0.2445 -0.9696 0.9696 0.2445 -63.062 1017.4987)" cx="621.5" cy="549.2" rx="4.3" ry="4.3"/>
			<path class="st24" d="M590.7,518.6c0,0-4.8,14.9,5.3,21.3c0,0,14.9,1,8.3-6.6L590.7,518.6z"/>
			<path class="st24" d="M637,549.4l-20.4-14.6c-0.2-0.2-0.3-0.5-0.1-0.7l2-2.8c0.2-0.2,0.5-0.3,0.7-0.1l20.4,14.6
				c0.2,0.2,0.3,0.5,0.1,0.7l-2,2.8C637.5,549.5,637.2,549.6,637,549.4z"/>
			
				<ellipse transform="matrix(0.2445 -0.9696 0.9696 0.2445 -58.2444 1019.6311)" class="st25" cx="625.2" cy="547.2" rx="1.4" ry="1.4"/>
		</g>
	</g>
</g>
<g id="Calque_2">
</g>
</svg>
